<?xml version="1.0" encoding="UTF-8" standalone="no"?>
<!DOCTYPE svg PUBLIC "-//W3C//DTD SVG 1.1//EN"
 "http://www.w3.org/Graphics/SVG/1.1/DTD/svg11.dtd">
<!-- Generated by graphviz version 2.43.0 (0)
 -->
<!-- Title: src/drv8704_pwm_esp32.cpp Pages: 1 -->
<svg width="241pt" height="252pt"
 viewBox="0.00 0.00 240.50 252.00" xmlns="http://www.w3.org/2000/svg" xmlns:xlink="http://www.w3.org/1999/xlink">
<g id="graph0" class="graph" transform="scale(1 1) rotate(0) translate(4 248)">
<title>src/drv8704_pwm_esp32.cpp</title>
<polygon fill="white" stroke="transparent" points="-4,4 -4,-248 236.5,-248 236.5,4 -4,4"/>
<!-- Node1 -->
<g id="node1" class="node">
<title>Node1</title>
<g id="a_node1"><a xlink:title="ESP32 LEDC backend for DRV8704 PWM input generation.">
<polygon fill="#bfbfbf" stroke="black" points="85,-224.5 85,-243.5 229,-243.5 229,-224.5 85,-224.5"/>
<text text-anchor="middle" x="157" y="-231.5" font-family="Helvetica,sans-Serif" font-size="10.00">src/drv8704_pwm_esp32.cpp</text>
</a>
</g>
</g>
<!-- Node2 -->
<g id="node2" class="node">
<title>Node2</title>
<g id="a_node2"><a xlink:href="drv8704__pwm_8h.html" target="_top" xlink:title="Shared abstraction for platform PWM generation backends.">
<polygon fill="white" stroke="black" points="78,-168.5 78,-187.5 164,-187.5 164,-168.5 78,-168.5"/>
<text text-anchor="middle" x="121" y="-175.5" font-family="Helvetica,sans-Serif" font-size="10.00">drv8704_pwm.h</text>
</a>
</g>
</g>
<!-- Node1&#45;&gt;Node2 -->
<g id="edge1" class="edge">
<title>Node1&#45;&gt;Node2</title>
<path fill="none" stroke="midnightblue" d="M151.06,-224.08C146.02,-216.53 138.66,-205.49 132.49,-196.23"/>
<polygon fill="midnightblue" stroke="midnightblue" points="135.29,-194.13 126.83,-187.75 129.47,-198.01 135.29,-194.13"/>
</g>
<!-- Node6 -->
<g id="node6" class="node">
<title>Node6</title>
<g id="a_node6"><a xlink:href="drv8704__defs_8h.html" target="_top" xlink:title="Constants, register addresses, masks, and defaults for the DRV8704 driver.">
<polygon fill="white" stroke="black" points="149.5,-56.5 149.5,-75.5 232.5,-75.5 232.5,-56.5 149.5,-56.5"/>
<text text-anchor="middle" x="191" y="-63.5" font-family="Helvetica,sans-Serif" font-size="10.00">drv8704_defs.h</text>
</a>
</g>
</g>
<!-- Node1&#45;&gt;Node6 -->
<g id="edge8" class="edge">
<title>Node1&#45;&gt;Node6</title>
<path fill="none" stroke="midnightblue" d="M160.71,-224.19C164.34,-215.23 169.79,-200.87 173,-188 181.89,-152.41 186.98,-109.76 189.35,-85.78"/>
<polygon fill="midnightblue" stroke="midnightblue" points="192.85,-85.9 190.3,-75.62 185.88,-85.25 192.85,-85.9"/>
</g>
<!-- Node3 -->
<g id="node3" class="node">
<title>Node3</title>
<g id="a_node3"><a xlink:title=" ">
<polygon fill="white" stroke="#bfbfbf" points="0,-112.5 0,-131.5 58,-131.5 58,-112.5 0,-112.5"/>
<text text-anchor="middle" x="29" y="-119.5" font-family="Helvetica,sans-Serif" font-size="10.00">Arduino.h</text>
</a>
</g>
</g>
<!-- Node2&#45;&gt;Node3 -->
<g id="edge2" class="edge">
<title>Node2&#45;&gt;Node3</title>
<path fill="none" stroke="midnightblue" d="M106.22,-168.32C91.73,-159.82 69.43,-146.73 52.51,-136.8"/>
<polygon fill="midnightblue" stroke="midnightblue" points="54.14,-133.7 43.74,-131.65 50.6,-139.74 54.14,-133.7"/>
</g>
<!-- Node4 -->
<g id="node4" class="node">
<title>Node4</title>
<g id="a_node4"><a xlink:href="drv8704__types_8h.html" target="_top" xlink:title="Public enums and data structures for the DRV8704 driver.">
<polygon fill="white" stroke="black" points="76.5,-112.5 76.5,-131.5 165.5,-131.5 165.5,-112.5 76.5,-112.5"/>
<text text-anchor="middle" x="121" y="-119.5" font-family="Helvetica,sans-Serif" font-size="10.00">drv8704_types.h</text>
</a>
</g>
</g>
<!-- Node2&#45;&gt;Node4 -->
<g id="edge3" class="edge">
<title>Node2&#45;&gt;Node4</title>
<path fill="none" stroke="midnightblue" d="M121,-168.08C121,-161.01 121,-150.86 121,-141.99"/>
<polygon fill="midnightblue" stroke="midnightblue" points="124.5,-141.75 121,-131.75 117.5,-141.75 124.5,-141.75"/>
</g>
<!-- Node5 -->
<g id="node5" class="node">
<title>Node5</title>
<g id="a_node5"><a xlink:title=" ">
<polygon fill="white" stroke="#bfbfbf" points="100.5,-0.5 100.5,-19.5 149.5,-19.5 149.5,-0.5 100.5,-0.5"/>
<text text-anchor="middle" x="125" y="-7.5" font-family="Helvetica,sans-Serif" font-size="10.00">stdint.h</text>
</a>
</g>
</g>
<!-- Node4&#45;&gt;Node5 -->
<g id="edge4" class="edge">
<title>Node4&#45;&gt;Node5</title>
<path fill="none" stroke="midnightblue" d="M121.31,-112.37C121.96,-94.62 123.45,-53.67 124.32,-29.6"/>
<polygon fill="midnightblue" stroke="midnightblue" points="127.82,-29.71 124.69,-19.59 120.83,-29.46 127.82,-29.71"/>
</g>
<!-- Node4&#45;&gt;Node6 -->
<g id="edge5" class="edge">
<title>Node4&#45;&gt;Node6</title>
<path fill="none" stroke="midnightblue" d="M132.25,-112.32C142.8,-104.18 158.8,-91.84 171.44,-82.09"/>
<polygon fill="midnightblue" stroke="midnightblue" points="173.77,-84.71 179.55,-75.83 169.49,-79.17 173.77,-84.71"/>
</g>
<!-- Node6&#45;&gt;Node5 -->
<g id="edge6" class="edge">
<title>Node6&#45;&gt;Node5</title>
<path fill="none" stroke="midnightblue" d="M180.4,-56.32C170.54,-48.26 155.65,-36.08 143.78,-26.37"/>
<polygon fill="midnightblue" stroke="midnightblue" points="145.75,-23.46 135.8,-19.83 141.32,-28.88 145.75,-23.46"/>
</g>
<!-- Node7 -->
<g id="node7" class="node">
<title>Node7</title>
<g id="a_node7"><a xlink:title=" ">
<polygon fill="white" stroke="#bfbfbf" points="170.5,-0.5 170.5,-19.5 211.5,-19.5 211.5,-0.5 170.5,-0.5"/>
<text text-anchor="middle" x="191" y="-7.5" font-family="Helvetica,sans-Serif" font-size="10.00">SPI.h</text>
</a>
</g>
</g>
<!-- Node6&#45;&gt;Node7 -->
<g id="edge7" class="edge">
<title>Node6&#45;&gt;Node7</title>
<path fill="none" stroke="midnightblue" d="M191,-56.08C191,-49.01 191,-38.86 191,-29.99"/>
<polygon fill="midnightblue" stroke="midnightblue" points="194.5,-29.75 191,-19.75 187.5,-29.75 194.5,-29.75"/>
</g>
</g>
</svg>
