<?xml version="1.0" encoding="UTF-8" standalone="no"?>
<!DOCTYPE svg PUBLIC "-//W3C//DTD SVG 1.1//EN"
 "http://www.w3.org/Graphics/SVG/1.1/DTD/svg11.dtd">
<!-- Generated by graphviz version 2.43.0 (0)
 -->
<!-- Title: src/drv8704_defs.h Pages: 1 -->
<!--zoomable 196 -->
<svg id="main" version="1.1" xmlns="http://www.w3.org/2000/svg" xmlns:xlink="http://www.w3.org/1999/xlink" xml:space="preserve" onload="init(evt)">
<style type="text/css"><![CDATA[
.edge:hover path { stroke: red; }
.edge:hover polygon { stroke: red; fill: red; }
]]></style>
<script type="text/javascript"><![CDATA[
var edges = document.getElementsByTagName('g');
if (edges && edges.length) {
  for (var i=0;i<edges.length;i++) {
    if (edges[i].id.substr(0,4)=='edge') {
      edges[i].setAttribute('class','edge');
    }
  }
}
]]></script>
        <defs>
                <circle id="rim" cx="0" cy="0" r="7"/>
                <circle id="rim2" cx="0" cy="0" r="3.5"/>
                <g id="zoomPlus">
                        <use xlink:href="#rim" fill="#404040">
                                <set attributeName="fill" to="#808080" begin="zoomplus.mouseover" end="zoomplus.mouseout"/>
                        </use>
                        <path d="M-4,0h8M0,-4v8" fill="none" stroke="white" stroke-width="1.5" pointer-events="none"/>
                </g>
                <g id="zoomMin">
                        <use xlink:href="#rim" fill="#404040">
                                <set attributeName="fill" to="#808080" begin="zoomminus.mouseover" end="zoomminus.mouseout"/>
                        </use>
                        <path d="M-4,0h8" fill="none" stroke="white" stroke-width="1.5" pointer-events="none"/>
                </g>
                <g id="dirArrow">
                        <path fill="none" stroke="white" stroke-width="1.5" d="M0,-3.0v7 M-2.5,-0.5L0,-3.0L2.5,-0.5"/>
                </g>
               <g id="resetDef">
                       <use xlink:href="#rim2" fill="#404040">
                               <set attributeName="fill" to="#808080" begin="reset.mouseover" end="reset.mouseout"/>
                       </use>
               </g>
        </defs>

<script type="text/javascript">
var viewWidth = 1428;
var viewHeight = 196;
var sectionId = 'dynsection-1';
</script>
<script xlink:href="svgpan.js"/>
<svg id="graph" class="graph">
<g id="viewport">
<title>src/drv8704_defs.h</title>
<polygon fill="white" stroke="transparent" points="-4,4 -4,-192 1423.5,-192 1423.5,4 -4,4"/>
<!-- Node1 -->
<g id="node1" class="node">
<title>Node1</title>
<g id="a_node1"><a xlink:title="Constants, register addresses, masks, and defaults for the DRV8704 driver.">
<polygon fill="#bfbfbf" stroke="black" points="946.5,-168.5 946.5,-187.5 1046.5,-187.5 1046.5,-168.5 946.5,-168.5"/>
<text text-anchor="middle" x="996.5" y="-175.5" font-family="Helvetica,sans-Serif" font-size="10.00">src/drv8704_defs.h</text>
</a>
</g>
</g>
<!-- Node2 -->
<g id="node2" class="node">
<title>Node2</title>
<g id="a_node2"><a xlink:href="drv8704_8h.html" target="_top" xlink:title="Public Arduino API for the DRV8704 dual H&#45;bridge gate driver.">
<polygon fill="white" stroke="black" points="496.5,-56.5 496.5,-75.5 572.5,-75.5 572.5,-56.5 496.5,-56.5"/>
<text text-anchor="middle" x="534.5" y="-63.5" font-family="Helvetica,sans-Serif" font-size="10.00">src/drv8704.h</text>
</a>
</g>
</g>
<!-- Node1&#45;&gt;Node2 -->
<g id="edge1" class="edge">
<title>Node1&#45;&gt;Node2</title>
<path fill="none" stroke="midnightblue" d="M950.79,-166.12C858.87,-144.23 653.39,-95.31 570.35,-75.53"/>
<polygon fill="midnightblue" stroke="midnightblue" points="950.09,-169.55 960.63,-168.46 951.71,-162.74 950.09,-169.55"/>
</g>
<!-- Node9 -->
<g id="node9" class="node">
<title>Node9</title>
<g id="a_node9"><a xlink:href="drv8704__pwm__esp32_8cpp.html" target="_top" xlink:title="ESP32 LEDC backend for DRV8704 PWM input generation.">
<polygon fill="white" stroke="black" points="791.5,-0.5 791.5,-19.5 935.5,-19.5 935.5,-0.5 791.5,-0.5"/>
<text text-anchor="middle" x="863.5" y="-7.5" font-family="Helvetica,sans-Serif" font-size="10.00">src/drv8704_pwm_esp32.cpp</text>
</a>
</g>
</g>
<!-- Node1&#45;&gt;Node9 -->
<g id="edge8" class="edge">
<title>Node1&#45;&gt;Node9</title>
<path fill="none" stroke="midnightblue" d="M972.93,-162.84C960.81,-154.8 946.34,-143.97 935.5,-132 902.19,-95.22 876.43,-40.69 867.2,-19.68"/>
<polygon fill="midnightblue" stroke="midnightblue" points="971.33,-165.98 981.64,-168.42 975.11,-160.08 971.33,-165.98"/>
</g>
<!-- Node10 -->
<g id="node10" class="node">
<title>Node10</title>
<g id="a_node10"><a xlink:href="drv8704__pwm__stm_8cpp.html" target="_top" xlink:title="STM hardware&#45;PWM backend for DRV8704 PWM input generation.">
<polygon fill="white" stroke="black" points="1121.5,-0.5 1121.5,-19.5 1255.5,-19.5 1255.5,-0.5 1121.5,-0.5"/>
<text text-anchor="middle" x="1188.5" y="-7.5" font-family="Helvetica,sans-Serif" font-size="10.00">src/drv8704_pwm_stm.cpp</text>
</a>
</g>
</g>
<!-- Node1&#45;&gt;Node10 -->
<g id="edge9" class="edge">
<title>Node1&#45;&gt;Node10</title>
<path fill="none" stroke="midnightblue" d="M1017.43,-162.76C1029.67,-154.2 1045.28,-142.88 1058.5,-132 1106.59,-92.42 1159.73,-39.96 1180.01,-19.6"/>
<polygon fill="midnightblue" stroke="midnightblue" points="1015.42,-159.9 1009.19,-168.47 1019.4,-165.66 1015.42,-159.9"/>
</g>
<!-- Node11 -->
<g id="node11" class="node">
<title>Node11</title>
<g id="a_node11"><a xlink:href="drv8704__pwm__teensy_8cpp.html" target="_top" xlink:title="Teensy hardware&#45;PWM backend for DRV8704 PWM input generation.">
<polygon fill="white" stroke="black" points="1273.5,-0.5 1273.5,-19.5 1419.5,-19.5 1419.5,-0.5 1273.5,-0.5"/>
<text text-anchor="middle" x="1346.5" y="-7.5" font-family="Helvetica,sans-Serif" font-size="10.00">src/drv8704_pwm_teensy.cpp</text>
</a>
</g>
</g>
<!-- Node1&#45;&gt;Node11 -->
<g id="edge10" class="edge">
<title>Node1&#45;&gt;Node11</title>
<path fill="none" stroke="midnightblue" d="M1024.18,-163.87C1093.09,-131.19 1270.96,-46.83 1328.36,-19.61"/>
<polygon fill="midnightblue" stroke="midnightblue" points="1022.36,-160.86 1014.82,-168.31 1025.36,-167.19 1022.36,-160.86"/>
</g>
<!-- Node12 -->
<g id="node12" class="node">
<title>Node12</title>
<g id="a_node12"><a xlink:href="drv8704__types_8h.html" target="_top" xlink:title="Public enums and data structures for the DRV8704 driver.">
<polygon fill="white" stroke="black" points="944,-112.5 944,-131.5 1049,-131.5 1049,-112.5 944,-112.5"/>
<text text-anchor="middle" x="996.5" y="-119.5" font-family="Helvetica,sans-Serif" font-size="10.00">src/drv8704_types.h</text>
</a>
</g>
</g>
<!-- Node1&#45;&gt;Node12 -->
<g id="edge11" class="edge">
<title>Node1&#45;&gt;Node12</title>
<path fill="none" stroke="midnightblue" d="M996.5,-157.8C996.5,-148.91 996.5,-138.78 996.5,-131.75"/>
<polygon fill="midnightblue" stroke="midnightblue" points="993,-158.08 996.5,-168.08 1000,-158.08 993,-158.08"/>
</g>
<!-- Node3 -->
<g id="node3" class="node">
<title>Node3</title>
<g id="a_node3"><a xlink:href="drv8704_8cpp.html" target="_top" xlink:title="Lifecycle and top&#45;level orchestration for the DRV8704 driver.">
<polygon fill="white" stroke="black" points="551.5,-0.5 551.5,-19.5 637.5,-19.5 637.5,-0.5 551.5,-0.5"/>
<text text-anchor="middle" x="594.5" y="-7.5" font-family="Helvetica,sans-Serif" font-size="10.00">src/drv8704.cpp</text>
</a>
</g>
</g>
<!-- Node2&#45;&gt;Node3 -->
<g id="edge2" class="edge">
<title>Node2&#45;&gt;Node3</title>
<path fill="none" stroke="midnightblue" d="M551.68,-49.54C562.38,-39.91 575.76,-27.87 584.68,-19.83"/>
<polygon fill="midnightblue" stroke="midnightblue" points="549.23,-47.03 544.14,-56.32 553.91,-52.24 549.23,-47.03"/>
</g>
<!-- Node4 -->
<g id="node4" class="node">
<title>Node4</title>
<g id="a_node4"><a xlink:href="drv8704__bridge_8cpp.html" target="_top" xlink:title="Runtime bridge GPIO helpers for the DRV8704 driver.">
<polygon fill="white" stroke="black" points="655.5,-0.5 655.5,-19.5 773.5,-19.5 773.5,-0.5 655.5,-0.5"/>
<text text-anchor="middle" x="714.5" y="-7.5" font-family="Helvetica,sans-Serif" font-size="10.00">src/drv8704_bridge.cpp</text>
</a>
</g>
</g>
<!-- Node2&#45;&gt;Node4 -->
<g id="edge3" class="edge">
<title>Node2&#45;&gt;Node4</title>
<path fill="none" stroke="midnightblue" d="M572.61,-53.57C606.56,-43.38 655.49,-28.7 686.11,-19.52"/>
<polygon fill="midnightblue" stroke="midnightblue" points="571.59,-50.22 563.02,-56.44 573.61,-56.92 571.59,-50.22"/>
</g>
<!-- Node5 -->
<g id="node5" class="node">
<title>Node5</title>
<g id="a_node5"><a xlink:href="drv8704__comm_8cpp.html" target="_top" xlink:title="SPI transport helpers for the DRV8704 driver.">
<polygon fill="white" stroke="black" points="0,-0.5 0,-19.5 119,-19.5 119,-0.5 0,-0.5"/>
<text text-anchor="middle" x="59.5" y="-7.5" font-family="Helvetica,sans-Serif" font-size="10.00">src/drv8704_comm.cpp</text>
</a>
</g>
</g>
<!-- Node2&#45;&gt;Node5 -->
<g id="edge4" class="edge">
<title>Node2&#45;&gt;Node5</title>
<path fill="none" stroke="midnightblue" d="M486.19,-59.95C410.07,-51.93 257.61,-35.57 128.5,-20 125.5,-19.64 122.43,-19.26 119.33,-18.88"/>
<polygon fill="midnightblue" stroke="midnightblue" points="486.1,-63.46 496.41,-61.03 486.83,-56.5 486.1,-63.46"/>
</g>
<!-- Node6 -->
<g id="node6" class="node">
<title>Node6</title>
<g id="a_node6"><a xlink:href="drv8704__config_8cpp.html" target="_top" xlink:title="Configuration helpers for the DRV8704 driver.">
<polygon fill="white" stroke="black" points="137.5,-0.5 137.5,-19.5 255.5,-19.5 255.5,-0.5 137.5,-0.5"/>
<text text-anchor="middle" x="196.5" y="-7.5" font-family="Helvetica,sans-Serif" font-size="10.00">src/drv8704_config.cpp</text>
</a>
</g>
</g>
<!-- Node2&#45;&gt;Node6 -->
<g id="edge5" class="edge">
<title>Node2&#45;&gt;Node6</title>
<path fill="none" stroke="midnightblue" d="M486.38,-57.31C423.77,-47.31 314.73,-29.89 249.71,-19.5"/>
<polygon fill="midnightblue" stroke="midnightblue" points="485.96,-60.79 496.38,-58.91 487.06,-53.88 485.96,-60.79"/>
</g>
<!-- Node7 -->
<g id="node7" class="node">
<title>Node7</title>
<g id="a_node7"><a xlink:href="drv8704__current_8cpp.html" target="_top" xlink:title="Current&#45;limit and current&#45;drive helpers for the DRV8704 driver.">
<polygon fill="white" stroke="black" points="273.5,-0.5 273.5,-19.5 395.5,-19.5 395.5,-0.5 273.5,-0.5"/>
<text text-anchor="middle" x="334.5" y="-7.5" font-family="Helvetica,sans-Serif" font-size="10.00">src/drv8704_current.cpp</text>
</a>
</g>
</g>
<!-- Node2&#45;&gt;Node7 -->
<g id="edge6" class="edge">
<title>Node2&#45;&gt;Node7</title>
<path fill="none" stroke="midnightblue" d="M493.13,-53.83C455.36,-43.63 400.36,-28.78 366.04,-19.52"/>
<polygon fill="midnightblue" stroke="midnightblue" points="492.24,-57.22 502.81,-56.44 494.07,-50.46 492.24,-57.22"/>
</g>
<!-- Node8 -->
<g id="node8" class="node">
<title>Node8</title>
<g id="a_node8"><a xlink:href="drv8704__status_8cpp.html" target="_top" xlink:title="Status and fault helpers for the DRV8704 driver.">
<polygon fill="white" stroke="black" points="414,-0.5 414,-19.5 533,-19.5 533,-0.5 414,-0.5"/>
<text text-anchor="middle" x="473.5" y="-7.5" font-family="Helvetica,sans-Serif" font-size="10.00">src/drv8704_status.cpp</text>
</a>
</g>
</g>
<!-- Node2&#45;&gt;Node8 -->
<g id="edge7" class="edge">
<title>Node2&#45;&gt;Node8</title>
<path fill="none" stroke="midnightblue" d="M517.03,-49.54C506.16,-39.91 492.56,-27.87 483.48,-19.83"/>
<polygon fill="midnightblue" stroke="midnightblue" points="514.89,-52.32 524.7,-56.32 519.53,-47.07 514.89,-52.32"/>
</g>
<!-- Node12&#45;&gt;Node2 -->
<g id="edge12" class="edge">
<title>Node12&#45;&gt;Node2</title>
<path fill="none" stroke="midnightblue" d="M933.97,-113.69C836.75,-102.33 652.29,-80.77 572.67,-71.46"/>
<polygon fill="midnightblue" stroke="midnightblue" points="933.61,-117.17 943.95,-114.86 934.43,-110.22 933.61,-117.17"/>
</g>
<!-- Node13 -->
<g id="node13" class="node">
<title>Node13</title>
<g id="a_node13"><a xlink:href="drv8704__pwm_8h.html" target="_top" xlink:title="Shared abstraction for platform PWM generation backends.">
<polygon fill="white" stroke="black" points="966.5,-56.5 966.5,-75.5 1068.5,-75.5 1068.5,-56.5 966.5,-56.5"/>
<text text-anchor="middle" x="1017.5" y="-63.5" font-family="Helvetica,sans-Serif" font-size="10.00">src/drv8704_pwm.h</text>
</a>
</g>
</g>
<!-- Node12&#45;&gt;Node13 -->
<g id="edge13" class="edge">
<title>Node12&#45;&gt;Node13</title>
<path fill="none" stroke="midnightblue" d="M1003.62,-102.69C1007.16,-93.59 1011.27,-83.01 1014.1,-75.75"/>
<polygon fill="midnightblue" stroke="midnightblue" points="1000.33,-101.49 999.97,-112.08 1006.85,-104.03 1000.33,-101.49"/>
</g>
<!-- Node13&#45;&gt;Node4 -->
<g id="edge14" class="edge">
<title>Node13&#45;&gt;Node4</title>
<path fill="none" stroke="midnightblue" d="M959.5,-54.66C902.24,-44.46 815.72,-29.04 762.29,-19.52"/>
<polygon fill="midnightblue" stroke="midnightblue" points="959.03,-58.13 969.49,-56.44 960.26,-51.24 959.03,-58.13"/>
</g>
<!-- Node13&#45;&gt;Node9 -->
<g id="edge15" class="edge">
<title>Node13&#45;&gt;Node9</title>
<path fill="none" stroke="midnightblue" d="M983.39,-53.04C954.41,-42.88 913.54,-28.55 887.79,-19.52"/>
<polygon fill="midnightblue" stroke="midnightblue" points="982.5,-56.44 993.1,-56.44 984.82,-49.83 982.5,-56.44"/>
</g>
<!-- Node13&#45;&gt;Node10 -->
<g id="edge17" class="edge">
<title>Node13&#45;&gt;Node10</title>
<path fill="none" stroke="midnightblue" d="M1054.54,-53.3C1086.76,-43.13 1132.69,-28.62 1161.53,-19.52"/>
<polygon fill="midnightblue" stroke="midnightblue" points="1053.08,-50.09 1044.6,-56.44 1055.19,-56.77 1053.08,-50.09"/>
</g>
<!-- Node13&#45;&gt;Node11 -->
<g id="edge18" class="edge">
<title>Node13&#45;&gt;Node11</title>
<path fill="none" stroke="midnightblue" d="M1078.6,-54.97C1140.71,-44.78 1235.91,-29.15 1294.52,-19.53"/>
<polygon fill="midnightblue" stroke="midnightblue" points="1077.85,-51.55 1068.55,-56.62 1078.98,-58.46 1077.85,-51.55"/>
</g>
<!-- Node14 -->
<g id="node14" class="node">
<title>Node14</title>
<g id="a_node14"><a xlink:href="drv8704__pwm__general_8cpp.html" target="_top" xlink:title="Generic Arduino analogWrite backend for DRV8704 PWM input generation.">
<polygon fill="white" stroke="black" points="954,-0.5 954,-19.5 1103,-19.5 1103,-0.5 954,-0.5"/>
<text text-anchor="middle" x="1028.5" y="-7.5" font-family="Helvetica,sans-Serif" font-size="10.00">src/drv8704_pwm_general.cpp</text>
</a>
</g>
</g>
<!-- Node13&#45;&gt;Node14 -->
<g id="edge16" class="edge">
<title>Node13&#45;&gt;Node14</title>
<path fill="none" stroke="midnightblue" d="M1021.35,-46.1C1023.18,-37.14 1025.27,-26.86 1026.72,-19.75"/>
<polygon fill="midnightblue" stroke="midnightblue" points="1017.88,-45.59 1019.32,-56.08 1024.74,-46.98 1017.88,-45.59"/>
</g>
</g>
</svg>
        <g id="navigator" transform="translate(0 0)" fill="#404254">
                <rect fill="#f2f5e9" fill-opacity="0.5" stroke="#606060" stroke-width=".5" x="0" y="0" width="60" height="60"/>
                <use id="zoomplus" xlink:href="#zoomPlus" x="17" y="9" onmousedown="handleZoom(evt,'in')"/>
                <use id="zoomminus" xlink:href="#zoomMin" x="42" y="9" onmousedown="handleZoom(evt,'out')"/>
                <use id="reset" xlink:href="#resetDef" x="30" y="36" onmousedown="handleReset()"/>
                <g id="arrowUp" xlink:href="#dirArrow" transform="translate(30 24)" onmousedown="handlePan(0,-1)">
                  <use xlink:href="#rim" fill="#404040">
                        <set attributeName="fill" to="#808080" begin="arrowUp.mouseover" end="arrowUp.mouseout"/>
                  </use>
                  <path fill="none" stroke="white" stroke-width="1.5" d="M0,-3.0v7 M-2.5,-0.5L0,-3.0L2.5,-0.5"/>
                </g>
                <g id="arrowRight" xlink:href="#dirArrow" transform="rotate(90) translate(36 -43)" onmousedown="handlePan(1,0)">
                  <use xlink:href="#rim" fill="#404040">
                        <set attributeName="fill" to="#808080" begin="arrowRight.mouseover" end="arrowRight.mouseout"/>
                  </use>
                  <path fill="none" stroke="white" stroke-width="1.5" d="M0,-3.0v7 M-2.5,-0.5L0,-3.0L2.5,-0.5"/>
                </g>
                <g id="arrowDown" xlink:href="#dirArrow" transform="rotate(180) translate(-30 -48)" onmousedown="handlePan(0,1)">
                  <use xlink:href="#rim" fill="#404040">
                        <set attributeName="fill" to="#808080" begin="arrowDown.mouseover" end="arrowDown.mouseout"/>
                  </use>
                  <path fill="none" stroke="white" stroke-width="1.5" d="M0,-3.0v7 M-2.5,-0.5L0,-3.0L2.5,-0.5"/>
                </g>
                <g id="arrowLeft" xlink:href="#dirArrow" transform="rotate(270) translate(-36 17)" onmousedown="handlePan(-1,0)">
                  <use xlink:href="#rim" fill="#404040">
                        <set attributeName="fill" to="#808080" begin="arrowLeft.mouseover" end="arrowLeft.mouseout"/>
                  </use>
                  <path fill="none" stroke="white" stroke-width="1.5" d="M0,-3.0v7 M-2.5,-0.5L0,-3.0L2.5,-0.5"/>
                </g>
        </g>
        <svg viewBox="0 0 15 15" width="100%" height="30px" preserveAspectRatio="xMaxYMin meet">
         <g id="arrow_out" transform="scale(0.3 0.3)">
          <a xlink:href="drv8704__defs_8h__dep__incl_org.svg" target="_base">
           <rect id="button" ry="5" rx="5" y="6" x="6" height="38" width="38"
                fill="#f2f5e9" fill-opacity="0.5" stroke="#606060" stroke-width="1.0"/>
           <path id="arrow"
             d="M 11.500037,31.436501 C 11.940474,20.09759 22.043105,11.32322 32.158766,21.979434 L 37.068811,17.246167 C 37.068811,17.246167 37.088388,32 37.088388,32 L 22.160133,31.978069 C 22.160133,31.978069 26.997745,27.140456 26.997745,27.140456 C 18.528582,18.264221 13.291696,25.230495 11.500037,31.436501 z"
             style="fill:#404040;"/>
          </a>
         </g>
        </svg>
</svg>
