<?xml version="1.0" encoding="UTF-8" standalone="no"?>
<!DOCTYPE svg PUBLIC "-//W3C//DTD SVG 1.1//EN"
 "http://www.w3.org/Graphics/SVG/1.1/DTD/svg11.dtd">
<!-- Generated by graphviz version 2.43.0 (0)
 -->
<!-- Title: src/drv8704_bridge.cpp Pages: 1 -->
<svg width="304pt" height="252pt"
 viewBox="0.00 0.00 303.50 252.00" xmlns="http://www.w3.org/2000/svg" xmlns:xlink="http://www.w3.org/1999/xlink">
<g id="graph0" class="graph" transform="scale(1 1) rotate(0) translate(4 248)">
<title>src/drv8704_bridge.cpp</title>
<polygon fill="white" stroke="transparent" points="-4,4 -4,-248 299.5,-248 299.5,4 -4,4"/>
<!-- Node1 -->
<g id="node1" class="node">
<title>Node1</title>
<g id="a_node1"><a xlink:title="Runtime bridge GPIO helpers for the DRV8704 driver.">
<polygon fill="#bfbfbf" stroke="black" points="125.5,-224.5 125.5,-243.5 243.5,-243.5 243.5,-224.5 125.5,-224.5"/>
<text text-anchor="middle" x="184.5" y="-231.5" font-family="Helvetica,sans-Serif" font-size="10.00">src/drv8704_bridge.cpp</text>
</a>
</g>
</g>
<!-- Node2 -->
<g id="node2" class="node">
<title>Node2</title>
<g id="a_node2"><a xlink:href="drv8704_8h.html" target="_top" xlink:title="Public Arduino API for the DRV8704 dual H&#45;bridge gate driver.">
<polygon fill="white" stroke="black" points="64,-168.5 64,-187.5 123,-187.5 123,-168.5 64,-168.5"/>
<text text-anchor="middle" x="93.5" y="-175.5" font-family="Helvetica,sans-Serif" font-size="10.00">drv8704.h</text>
</a>
</g>
</g>
<!-- Node1&#45;&gt;Node2 -->
<g id="edge1" class="edge">
<title>Node1&#45;&gt;Node2</title>
<path fill="none" stroke="midnightblue" d="M169.88,-224.32C155.55,-215.82 133.49,-202.73 116.75,-192.8"/>
<polygon fill="midnightblue" stroke="midnightblue" points="118.47,-189.75 108.08,-187.65 114.9,-195.77 118.47,-189.75"/>
</g>
<!-- Node9 -->
<g id="node9" class="node">
<title>Node9</title>
<g id="a_node9"><a xlink:href="drv8704__pwm_8h.html" target="_top" xlink:title="Shared abstraction for platform PWM generation backends.">
<polygon fill="white" stroke="black" points="141.5,-168.5 141.5,-187.5 227.5,-187.5 227.5,-168.5 141.5,-168.5"/>
<text text-anchor="middle" x="184.5" y="-175.5" font-family="Helvetica,sans-Serif" font-size="10.00">drv8704_pwm.h</text>
</a>
</g>
</g>
<!-- Node1&#45;&gt;Node9 -->
<g id="edge12" class="edge">
<title>Node1&#45;&gt;Node9</title>
<path fill="none" stroke="midnightblue" d="M184.5,-224.08C184.5,-217.01 184.5,-206.86 184.5,-197.99"/>
<polygon fill="midnightblue" stroke="midnightblue" points="188,-197.75 184.5,-187.75 181,-197.75 188,-197.75"/>
</g>
<!-- Node10 -->
<g id="node10" class="node">
<title>Node10</title>
<g id="a_node10"><a xlink:title=" ">
<polygon fill="white" stroke="#bfbfbf" points="245.5,-168.5 245.5,-187.5 295.5,-187.5 295.5,-168.5 245.5,-168.5"/>
<text text-anchor="middle" x="270.5" y="-175.5" font-family="Helvetica,sans-Serif" font-size="10.00">logger.h</text>
</a>
</g>
</g>
<!-- Node1&#45;&gt;Node10 -->
<g id="edge15" class="edge">
<title>Node1&#45;&gt;Node10</title>
<path fill="none" stroke="midnightblue" d="M198.32,-224.32C211.73,-215.9 232.32,-202.97 248.09,-193.07"/>
<polygon fill="midnightblue" stroke="midnightblue" points="250.11,-195.94 256.72,-187.65 246.39,-190.01 250.11,-195.94"/>
</g>
<!-- Node3 -->
<g id="node3" class="node">
<title>Node3</title>
<g id="a_node3"><a xlink:title=" ">
<polygon fill="white" stroke="#bfbfbf" points="228.5,-112.5 228.5,-131.5 286.5,-131.5 286.5,-112.5 228.5,-112.5"/>
<text text-anchor="middle" x="257.5" y="-119.5" font-family="Helvetica,sans-Serif" font-size="10.00">Arduino.h</text>
</a>
</g>
</g>
<!-- Node2&#45;&gt;Node3 -->
<g id="edge2" class="edge">
<title>Node2&#45;&gt;Node3</title>
<path fill="none" stroke="midnightblue" d="M119.49,-168.44C147.2,-159.32 191.25,-144.81 222.12,-134.65"/>
<polygon fill="midnightblue" stroke="midnightblue" points="223.23,-137.97 231.64,-131.52 221.04,-131.32 223.23,-137.97"/>
</g>
<!-- Node4 -->
<g id="node4" class="node">
<title>Node4</title>
<g id="a_node4"><a xlink:title=" ">
<polygon fill="white" stroke="#bfbfbf" points="0,-0.5 0,-19.5 41,-19.5 41,-0.5 0,-0.5"/>
<text text-anchor="middle" x="20.5" y="-7.5" font-family="Helvetica,sans-Serif" font-size="10.00">SPI.h</text>
</a>
</g>
</g>
<!-- Node2&#45;&gt;Node4 -->
<g id="edge3" class="edge">
<title>Node2&#45;&gt;Node4</title>
<path fill="none" stroke="midnightblue" d="M81.61,-168.36C61.18,-152.68 20.11,-117.32 4.5,-76 -1.39,-60.41 4.34,-41.88 10.52,-28.6"/>
<polygon fill="midnightblue" stroke="midnightblue" points="13.69,-30.1 15.15,-19.61 7.46,-26.9 13.69,-30.1"/>
</g>
<!-- Node5 -->
<g id="node5" class="node">
<title>Node5</title>
<g id="a_node5"><a xlink:href="drv8704__defs_8h.html" target="_top" xlink:title="Constants, register addresses, masks, and defaults for the DRV8704 driver.">
<polygon fill="white" stroke="black" points="14,-56.5 14,-75.5 97,-75.5 97,-56.5 14,-56.5"/>
<text text-anchor="middle" x="55.5" y="-63.5" font-family="Helvetica,sans-Serif" font-size="10.00">drv8704_defs.h</text>
</a>
</g>
</g>
<!-- Node2&#45;&gt;Node5 -->
<g id="edge4" class="edge">
<title>Node2&#45;&gt;Node5</title>
<path fill="none" stroke="midnightblue" d="M90.52,-168.37C84.36,-150.54 70.11,-109.3 61.81,-85.27"/>
<polygon fill="midnightblue" stroke="midnightblue" points="65.04,-83.9 58.47,-75.59 58.43,-86.19 65.04,-83.9"/>
</g>
<!-- Node7 -->
<g id="node7" class="node">
<title>Node7</title>
<g id="a_node7"><a xlink:href="drv8704__types_8h.html" target="_top" xlink:title="Public enums and data structures for the DRV8704 driver.">
<polygon fill="white" stroke="black" points="122,-112.5 122,-131.5 211,-131.5 211,-112.5 122,-112.5"/>
<text text-anchor="middle" x="166.5" y="-119.5" font-family="Helvetica,sans-Serif" font-size="10.00">drv8704_types.h</text>
</a>
</g>
</g>
<!-- Node2&#45;&gt;Node7 -->
<g id="edge7" class="edge">
<title>Node2&#45;&gt;Node7</title>
<path fill="none" stroke="midnightblue" d="M105.23,-168.32C116.34,-160.11 133.24,-147.6 146.48,-137.81"/>
<polygon fill="midnightblue" stroke="midnightblue" points="148.6,-140.59 154.56,-131.83 144.44,-134.97 148.6,-140.59"/>
</g>
<!-- Node8 -->
<g id="node8" class="node">
<title>Node8</title>
<g id="a_node8"><a xlink:href="drv8704__regs__typedefs_8h.html" target="_top" xlink:title="Typed register views for the DRV8704 register set.">
<polygon fill="white" stroke="black" points="115.5,-56.5 115.5,-75.5 241.5,-75.5 241.5,-56.5 115.5,-56.5"/>
<text text-anchor="middle" x="178.5" y="-63.5" font-family="Helvetica,sans-Serif" font-size="10.00">drv8704_regs_typedefs.h</text>
</a>
</g>
</g>
<!-- Node2&#45;&gt;Node8 -->
<g id="edge10" class="edge">
<title>Node2&#45;&gt;Node8</title>
<path fill="none" stroke="midnightblue" d="M94.37,-168.19C96.05,-154.88 100.81,-129.34 113.5,-112 123.15,-98.81 137.89,-88.15 150.9,-80.53"/>
<polygon fill="midnightblue" stroke="midnightblue" points="152.9,-83.42 159.96,-75.52 149.52,-77.29 152.9,-83.42"/>
</g>
<!-- Node5&#45;&gt;Node4 -->
<g id="edge6" class="edge">
<title>Node5&#45;&gt;Node4</title>
<path fill="none" stroke="midnightblue" d="M49.72,-56.08C44.83,-48.53 37.67,-37.49 31.67,-28.23"/>
<polygon fill="midnightblue" stroke="midnightblue" points="34.55,-26.24 26.17,-19.75 28.67,-30.05 34.55,-26.24"/>
</g>
<!-- Node6 -->
<g id="node6" class="node">
<title>Node6</title>
<g id="a_node6"><a xlink:title=" ">
<polygon fill="white" stroke="#bfbfbf" points="154,-0.5 154,-19.5 203,-19.5 203,-0.5 154,-0.5"/>
<text text-anchor="middle" x="178.5" y="-7.5" font-family="Helvetica,sans-Serif" font-size="10.00">stdint.h</text>
</a>
</g>
</g>
<!-- Node5&#45;&gt;Node6 -->
<g id="edge5" class="edge">
<title>Node5&#45;&gt;Node6</title>
<path fill="none" stroke="midnightblue" d="M74.99,-56.44C95.14,-47.6 126.82,-33.69 149.83,-23.59"/>
<polygon fill="midnightblue" stroke="midnightblue" points="151.35,-26.74 159.1,-19.52 148.54,-20.33 151.35,-26.74"/>
</g>
<!-- Node7&#45;&gt;Node5 -->
<g id="edge9" class="edge">
<title>Node7&#45;&gt;Node5</title>
<path fill="none" stroke="midnightblue" d="M148.67,-112.32C130.78,-103.62 103.02,-90.12 82.45,-80.11"/>
<polygon fill="midnightblue" stroke="midnightblue" points="83.81,-76.88 73.29,-75.65 80.75,-83.18 83.81,-76.88"/>
</g>
<!-- Node7&#45;&gt;Node6 -->
<g id="edge8" class="edge">
<title>Node7&#45;&gt;Node6</title>
<path fill="none" stroke="midnightblue" d="M199.49,-112.44C217.96,-105.77 239.45,-94.45 250.5,-76 263.62,-54.09 235.94,-35.33 211.19,-23.68"/>
<polygon fill="midnightblue" stroke="midnightblue" points="212.49,-20.43 201.93,-19.57 209.65,-26.83 212.49,-20.43"/>
</g>
<!-- Node8&#45;&gt;Node6 -->
<g id="edge11" class="edge">
<title>Node8&#45;&gt;Node6</title>
<path fill="none" stroke="midnightblue" d="M178.5,-56.08C178.5,-49.01 178.5,-38.86 178.5,-29.99"/>
<polygon fill="midnightblue" stroke="midnightblue" points="182,-29.75 178.5,-19.75 175,-29.75 182,-29.75"/>
</g>
<!-- Node9&#45;&gt;Node3 -->
<g id="edge13" class="edge">
<title>Node9&#45;&gt;Node3</title>
<path fill="none" stroke="midnightblue" d="M196.23,-168.32C207.34,-160.11 224.24,-147.6 237.48,-137.81"/>
<polygon fill="midnightblue" stroke="midnightblue" points="239.6,-140.59 245.56,-131.83 235.44,-134.97 239.6,-140.59"/>
</g>
<!-- Node9&#45;&gt;Node7 -->
<g id="edge14" class="edge">
<title>Node9&#45;&gt;Node7</title>
<path fill="none" stroke="midnightblue" d="M181.53,-168.08C179.12,-160.85 175.64,-150.41 172.63,-141.4"/>
<polygon fill="midnightblue" stroke="midnightblue" points="175.9,-140.13 169.42,-131.75 169.26,-142.34 175.9,-140.13"/>
</g>
</g>
</svg>
