<?xml version="1.0" encoding="UTF-8" standalone="no"?>
<!DOCTYPE svg PUBLIC "-//W3C//DTD SVG 1.1//EN"
 "http://www.w3.org/Graphics/SVG/1.1/DTD/svg11.dtd">
<!-- Generated by graphviz version 2.43.0 (0)
 -->
<!-- Title: src/drv8704.h Pages: 1 -->
<svg width="388pt" height="196pt"
 viewBox="0.00 0.00 388.00 196.00" xmlns="http://www.w3.org/2000/svg" xmlns:xlink="http://www.w3.org/1999/xlink">
<g id="graph0" class="graph" transform="scale(1 1) rotate(0) translate(4 192)">
<title>src/drv8704.h</title>
<polygon fill="white" stroke="transparent" points="-4,4 -4,-192 384,-192 384,4 -4,4"/>
<!-- Node1 -->
<g id="node1" class="node">
<title>Node1</title>
<g id="a_node1"><a xlink:title="Public Arduino API for the DRV8704 dual H&#45;bridge gate driver.">
<polygon fill="#bfbfbf" stroke="black" points="100,-168.5 100,-187.5 176,-187.5 176,-168.5 100,-168.5"/>
<text text-anchor="middle" x="138" y="-175.5" font-family="Helvetica,sans-Serif" font-size="10.00">src/drv8704.h</text>
</a>
</g>
</g>
<!-- Node2 -->
<g id="node2" class="node">
<title>Node2</title>
<g id="a_node2"><a xlink:title=" ">
<polygon fill="white" stroke="#bfbfbf" points="0,-112.5 0,-131.5 58,-131.5 58,-112.5 0,-112.5"/>
<text text-anchor="middle" x="29" y="-119.5" font-family="Helvetica,sans-Serif" font-size="10.00">Arduino.h</text>
</a>
</g>
</g>
<!-- Node1&#45;&gt;Node2 -->
<g id="edge1" class="edge">
<title>Node1&#45;&gt;Node2</title>
<path fill="none" stroke="midnightblue" d="M120.49,-168.32C102.93,-159.62 75.67,-146.12 55.47,-136.11"/>
<polygon fill="midnightblue" stroke="midnightblue" points="56.98,-132.96 46.47,-131.65 53.88,-139.23 56.98,-132.96"/>
</g>
<!-- Node3 -->
<g id="node3" class="node">
<title>Node3</title>
<g id="a_node3"><a xlink:title=" ">
<polygon fill="white" stroke="#bfbfbf" points="100.5,-0.5 100.5,-19.5 141.5,-19.5 141.5,-0.5 100.5,-0.5"/>
<text text-anchor="middle" x="121" y="-7.5" font-family="Helvetica,sans-Serif" font-size="10.00">SPI.h</text>
</a>
</g>
</g>
<!-- Node1&#45;&gt;Node3 -->
<g id="edge2" class="edge">
<title>Node1&#45;&gt;Node3</title>
<path fill="none" stroke="midnightblue" d="M132.89,-168.32C121.9,-148.63 97.6,-98.91 105,-56 106.57,-46.91 109.79,-37.22 112.94,-29.17"/>
<polygon fill="midnightblue" stroke="midnightblue" points="116.26,-30.3 116.89,-19.72 109.81,-27.6 116.26,-30.3"/>
</g>
<!-- Node4 -->
<g id="node4" class="node">
<title>Node4</title>
<g id="a_node4"><a xlink:href="drv8704__defs_8h.html" target="_top" xlink:title="Constants, register addresses, masks, and defaults for the DRV8704 driver.">
<polygon fill="white" stroke="black" points="114.5,-56.5 114.5,-75.5 197.5,-75.5 197.5,-56.5 114.5,-56.5"/>
<text text-anchor="middle" x="156" y="-63.5" font-family="Helvetica,sans-Serif" font-size="10.00">drv8704_defs.h</text>
</a>
</g>
</g>
<!-- Node1&#45;&gt;Node4 -->
<g id="edge3" class="edge">
<title>Node1&#45;&gt;Node4</title>
<path fill="none" stroke="midnightblue" d="M139.41,-168.37C142.32,-150.62 149.02,-109.67 152.96,-85.6"/>
<polygon fill="midnightblue" stroke="midnightblue" points="156.43,-86.03 154.59,-75.59 149.53,-84.89 156.43,-86.03"/>
</g>
<!-- Node6 -->
<g id="node6" class="node">
<title>Node6</title>
<g id="a_node6"><a xlink:href="drv8704__types_8h.html" target="_top" xlink:title="Public enums and data structures for the DRV8704 driver.">
<polygon fill="white" stroke="black" points="166.5,-112.5 166.5,-131.5 255.5,-131.5 255.5,-112.5 166.5,-112.5"/>
<text text-anchor="middle" x="211" y="-119.5" font-family="Helvetica,sans-Serif" font-size="10.00">drv8704_types.h</text>
</a>
</g>
</g>
<!-- Node1&#45;&gt;Node6 -->
<g id="edge6" class="edge">
<title>Node1&#45;&gt;Node6</title>
<path fill="none" stroke="midnightblue" d="M149.73,-168.32C160.84,-160.11 177.74,-147.6 190.98,-137.81"/>
<polygon fill="midnightblue" stroke="midnightblue" points="193.1,-140.59 199.06,-131.83 188.94,-134.97 193.1,-140.59"/>
</g>
<!-- Node7 -->
<g id="node7" class="node">
<title>Node7</title>
<g id="a_node7"><a xlink:href="drv8704__regs__typedefs_8h.html" target="_top" xlink:title="Typed register views for the DRV8704 register set.">
<polygon fill="white" stroke="black" points="254,-56.5 254,-75.5 380,-75.5 380,-56.5 254,-56.5"/>
<text text-anchor="middle" x="317" y="-63.5" font-family="Helvetica,sans-Serif" font-size="10.00">drv8704_regs_typedefs.h</text>
</a>
</g>
</g>
<!-- Node1&#45;&gt;Node7 -->
<g id="edge9" class="edge">
<title>Node1&#45;&gt;Node7</title>
<path fill="none" stroke="midnightblue" d="M176.09,-169.14C202.5,-162.38 237.53,-150.69 264,-132 281.95,-119.32 297.16,-99 306.62,-84.45"/>
<polygon fill="midnightblue" stroke="midnightblue" points="309.65,-86.2 311.97,-75.87 303.71,-82.5 309.65,-86.2"/>
</g>
<!-- Node4&#45;&gt;Node3 -->
<g id="edge5" class="edge">
<title>Node4&#45;&gt;Node3</title>
<path fill="none" stroke="midnightblue" d="M150.22,-56.08C145.33,-48.53 138.17,-37.49 132.17,-28.23"/>
<polygon fill="midnightblue" stroke="midnightblue" points="135.05,-26.24 126.67,-19.75 129.17,-30.05 135.05,-26.24"/>
</g>
<!-- Node5 -->
<g id="node5" class="node">
<title>Node5</title>
<g id="a_node5"><a xlink:title=" ">
<polygon fill="white" stroke="#bfbfbf" points="201.5,-0.5 201.5,-19.5 250.5,-19.5 250.5,-0.5 201.5,-0.5"/>
<text text-anchor="middle" x="226" y="-7.5" font-family="Helvetica,sans-Serif" font-size="10.00">stdint.h</text>
</a>
</g>
</g>
<!-- Node4&#45;&gt;Node5 -->
<g id="edge4" class="edge">
<title>Node4&#45;&gt;Node5</title>
<path fill="none" stroke="midnightblue" d="M167.25,-56.32C177.8,-48.18 193.8,-35.84 206.44,-26.09"/>
<polygon fill="midnightblue" stroke="midnightblue" points="208.77,-28.71 214.55,-19.83 204.49,-23.17 208.77,-28.71"/>
</g>
<!-- Node6&#45;&gt;Node4 -->
<g id="edge8" class="edge">
<title>Node6&#45;&gt;Node4</title>
<path fill="none" stroke="midnightblue" d="M201.92,-112.08C193.83,-104.14 181.8,-92.34 172.09,-82.8"/>
<polygon fill="midnightblue" stroke="midnightblue" points="174.5,-80.26 164.91,-75.75 169.6,-85.25 174.5,-80.26"/>
</g>
<!-- Node6&#45;&gt;Node5 -->
<g id="edge7" class="edge">
<title>Node6&#45;&gt;Node5</title>
<path fill="none" stroke="midnightblue" d="M212.18,-112.37C214.6,-94.62 220.18,-53.67 223.46,-29.6"/>
<polygon fill="midnightblue" stroke="midnightblue" points="226.95,-29.97 224.83,-19.59 220.01,-29.03 226.95,-29.97"/>
</g>
<!-- Node7&#45;&gt;Node5 -->
<g id="edge10" class="edge">
<title>Node7&#45;&gt;Node5</title>
<path fill="none" stroke="midnightblue" d="M302.38,-56.32C288.05,-47.82 265.99,-34.73 249.25,-24.8"/>
<polygon fill="midnightblue" stroke="midnightblue" points="250.97,-21.75 240.58,-19.65 247.4,-27.77 250.97,-21.75"/>
</g>
</g>
</svg>
