<?xml version="1.0" encoding="UTF-8" standalone="no"?>
<!DOCTYPE svg PUBLIC "-//W3C//DTD SVG 1.1//EN"
 "http://www.w3.org/Graphics/SVG/1.1/DTD/svg11.dtd">
<!-- Generated by graphviz version 2.43.0 (0)
 -->
<!-- Title: src/drv8704_types.h Pages: 1 -->
<svg width="1428pt" height="140pt"
 viewBox="0.00 0.00 1428.00 140.00" xmlns="http://www.w3.org/2000/svg" xmlns:xlink="http://www.w3.org/1999/xlink">
<g id="graph0" class="graph" transform="scale(1 1) rotate(0) translate(4 136)">
<title>src/drv8704_types.h</title>
<polygon fill="white" stroke="transparent" points="-4,4 -4,-136 1424,-136 1424,4 -4,4"/>
<!-- Node1 -->
<g id="node1" class="node">
<title>Node1</title>
<g id="a_node1"><a xlink:title="Public enums and data structures for the DRV8704 driver.">
<polygon fill="#bfbfbf" stroke="black" points="598.5,-112.5 598.5,-131.5 703.5,-131.5 703.5,-112.5 598.5,-112.5"/>
<text text-anchor="middle" x="651" y="-119.5" font-family="Helvetica,sans-Serif" font-size="10.00">src/drv8704_types.h</text>
</a>
</g>
</g>
<!-- Node2 -->
<g id="node2" class="node">
<title>Node2</title>
<g id="a_node2"><a xlink:href="drv8704_8h.html" target="_top" xlink:title="Public Arduino API for the DRV8704 dual H&#45;bridge gate driver.">
<polygon fill="white" stroke="black" points="401,-56.5 401,-75.5 477,-75.5 477,-56.5 401,-56.5"/>
<text text-anchor="middle" x="439" y="-63.5" font-family="Helvetica,sans-Serif" font-size="10.00">src/drv8704.h</text>
</a>
</g>
</g>
<!-- Node1&#45;&gt;Node2 -->
<g id="edge1" class="edge">
<title>Node1&#45;&gt;Node2</title>
<path fill="none" stroke="midnightblue" d="M607.65,-109.96C567.61,-99.76 508.97,-84.82 472.43,-75.52"/>
<polygon fill="midnightblue" stroke="midnightblue" points="606.85,-113.37 617.41,-112.44 608.58,-106.58 606.85,-113.37"/>
</g>
<!-- Node9 -->
<g id="node9" class="node">
<title>Node9</title>
<g id="a_node9"><a xlink:href="drv8704__pwm_8h.html" target="_top" xlink:title="Shared abstraction for platform PWM generation backends.">
<polygon fill="white" stroke="black" points="895,-56.5 895,-75.5 997,-75.5 997,-56.5 895,-56.5"/>
<text text-anchor="middle" x="946" y="-63.5" font-family="Helvetica,sans-Serif" font-size="10.00">src/drv8704_pwm.h</text>
</a>
</g>
</g>
<!-- Node1&#45;&gt;Node9 -->
<g id="edge8" class="edge">
<title>Node1&#45;&gt;Node9</title>
<path fill="none" stroke="midnightblue" d="M707.81,-110.6C763.56,-100.4 847.56,-85.02 899.48,-75.52"/>
<polygon fill="midnightblue" stroke="midnightblue" points="706.95,-107.2 697.74,-112.44 708.21,-114.09 706.95,-107.2"/>
</g>
<!-- Node3 -->
<g id="node3" class="node">
<title>Node3</title>
<g id="a_node3"><a xlink:href="drv8704_8cpp.html" target="_top" xlink:title="Lifecycle and top&#45;level orchestration for the DRV8704 driver.">
<polygon fill="white" stroke="black" points="0,-0.5 0,-19.5 86,-19.5 86,-0.5 0,-0.5"/>
<text text-anchor="middle" x="43" y="-7.5" font-family="Helvetica,sans-Serif" font-size="10.00">src/drv8704.cpp</text>
</a>
</g>
</g>
<!-- Node2&#45;&gt;Node3 -->
<g id="edge2" class="edge">
<title>Node2&#45;&gt;Node3</title>
<path fill="none" stroke="midnightblue" d="M390.55,-59.3C323.87,-51.31 200.14,-35.97 95,-20 92.1,-19.56 89.11,-19.09 86.11,-18.6"/>
<polygon fill="midnightblue" stroke="midnightblue" points="390.4,-62.81 400.75,-60.52 391.23,-55.86 390.4,-62.81"/>
</g>
<!-- Node4 -->
<g id="node4" class="node">
<title>Node4</title>
<g id="a_node4"><a xlink:href="drv8704__bridge_8cpp.html" target="_top" xlink:title="Runtime bridge GPIO helpers for the DRV8704 driver.">
<polygon fill="white" stroke="black" points="656,-0.5 656,-19.5 774,-19.5 774,-0.5 656,-0.5"/>
<text text-anchor="middle" x="715" y="-7.5" font-family="Helvetica,sans-Serif" font-size="10.00">src/drv8704_bridge.cpp</text>
</a>
</g>
</g>
<!-- Node2&#45;&gt;Node4 -->
<g id="edge3" class="edge">
<title>Node2&#45;&gt;Node4</title>
<path fill="none" stroke="midnightblue" d="M487.06,-55.6C539.05,-45.42 621.21,-29.35 671.4,-19.53"/>
<polygon fill="midnightblue" stroke="midnightblue" points="486.23,-52.19 477.09,-57.55 487.57,-59.06 486.23,-52.19"/>
</g>
<!-- Node5 -->
<g id="node5" class="node">
<title>Node5</title>
<g id="a_node5"><a xlink:href="drv8704__comm_8cpp.html" target="_top" xlink:title="SPI transport helpers for the DRV8704 driver.">
<polygon fill="white" stroke="black" points="104.5,-0.5 104.5,-19.5 223.5,-19.5 223.5,-0.5 104.5,-0.5"/>
<text text-anchor="middle" x="164" y="-7.5" font-family="Helvetica,sans-Serif" font-size="10.00">src/drv8704_comm.cpp</text>
</a>
</g>
</g>
<!-- Node2&#45;&gt;Node5 -->
<g id="edge4" class="edge">
<title>Node2&#45;&gt;Node5</title>
<path fill="none" stroke="midnightblue" d="M390.81,-55.54C338.96,-45.36 257.24,-29.31 207.35,-19.51"/>
<polygon fill="midnightblue" stroke="midnightblue" points="390.28,-59 400.76,-57.49 391.62,-52.13 390.28,-59"/>
</g>
<!-- Node6 -->
<g id="node6" class="node">
<title>Node6</title>
<g id="a_node6"><a xlink:href="drv8704__config_8cpp.html" target="_top" xlink:title="Configuration helpers for the DRV8704 driver.">
<polygon fill="white" stroke="black" points="242,-0.5 242,-19.5 360,-19.5 360,-0.5 242,-0.5"/>
<text text-anchor="middle" x="301" y="-7.5" font-family="Helvetica,sans-Serif" font-size="10.00">src/drv8704_config.cpp</text>
</a>
</g>
</g>
<!-- Node2&#45;&gt;Node6 -->
<g id="edge5" class="edge">
<title>Node2&#45;&gt;Node6</title>
<path fill="none" stroke="midnightblue" d="M407.75,-52.77C381.83,-42.63 345.64,-28.47 322.76,-19.52"/>
<polygon fill="midnightblue" stroke="midnightblue" points="406.55,-56.06 417.13,-56.44 409.1,-49.54 406.55,-56.06"/>
</g>
<!-- Node7 -->
<g id="node7" class="node">
<title>Node7</title>
<g id="a_node7"><a xlink:href="drv8704__current_8cpp.html" target="_top" xlink:title="Current&#45;limit and current&#45;drive helpers for the DRV8704 driver.">
<polygon fill="white" stroke="black" points="378,-0.5 378,-19.5 500,-19.5 500,-0.5 378,-0.5"/>
<text text-anchor="middle" x="439" y="-7.5" font-family="Helvetica,sans-Serif" font-size="10.00">src/drv8704_current.cpp</text>
</a>
</g>
</g>
<!-- Node2&#45;&gt;Node7 -->
<g id="edge6" class="edge">
<title>Node2&#45;&gt;Node7</title>
<path fill="none" stroke="midnightblue" d="M439,-45.8C439,-36.91 439,-26.78 439,-19.75"/>
<polygon fill="midnightblue" stroke="midnightblue" points="435.5,-46.08 439,-56.08 442.5,-46.08 435.5,-46.08"/>
</g>
<!-- Node8 -->
<g id="node8" class="node">
<title>Node8</title>
<g id="a_node8"><a xlink:href="drv8704__status_8cpp.html" target="_top" xlink:title="Status and fault helpers for the DRV8704 driver.">
<polygon fill="white" stroke="black" points="518.5,-0.5 518.5,-19.5 637.5,-19.5 637.5,-0.5 518.5,-0.5"/>
<text text-anchor="middle" x="578" y="-7.5" font-family="Helvetica,sans-Serif" font-size="10.00">src/drv8704_status.cpp</text>
</a>
</g>
</g>
<!-- Node2&#45;&gt;Node8 -->
<g id="edge7" class="edge">
<title>Node2&#45;&gt;Node8</title>
<path fill="none" stroke="midnightblue" d="M470.48,-52.77C496.59,-42.63 533.04,-28.47 556.08,-19.52"/>
<polygon fill="midnightblue" stroke="midnightblue" points="469.08,-49.56 461.02,-56.44 471.61,-56.08 469.08,-49.56"/>
</g>
<!-- Node9&#45;&gt;Node4 -->
<g id="edge9" class="edge">
<title>Node9&#45;&gt;Node4</title>
<path fill="none" stroke="midnightblue" d="M899.6,-54.15C855.95,-43.95 791.49,-28.88 751.43,-19.52"/>
<polygon fill="midnightblue" stroke="midnightblue" points="898.86,-57.58 909.4,-56.44 900.46,-50.76 898.86,-57.58"/>
</g>
<!-- Node10 -->
<g id="node10" class="node">
<title>Node10</title>
<g id="a_node10"><a xlink:href="drv8704__pwm__esp32_8cpp.html" target="_top" xlink:title="ESP32 LEDC backend for DRV8704 PWM input generation.">
<polygon fill="white" stroke="black" points="792,-0.5 792,-19.5 936,-19.5 936,-0.5 792,-0.5"/>
<text text-anchor="middle" x="864" y="-7.5" font-family="Helvetica,sans-Serif" font-size="10.00">src/drv8704_pwm_esp32.cpp</text>
</a>
</g>
</g>
<!-- Node9&#45;&gt;Node10 -->
<g id="edge10" class="edge">
<title>Node9&#45;&gt;Node10</title>
<path fill="none" stroke="midnightblue" d="M924.17,-50.62C909.19,-40.76 889.8,-27.99 877.14,-19.65"/>
<polygon fill="midnightblue" stroke="midnightblue" points="922.55,-53.75 932.83,-56.32 926.4,-47.9 922.55,-53.75"/>
</g>
<!-- Node11 -->
<g id="node11" class="node">
<title>Node11</title>
<g id="a_node11"><a xlink:href="drv8704__pwm__general_8cpp.html" target="_top" xlink:title="Generic Arduino analogWrite backend for DRV8704 PWM input generation.">
<polygon fill="white" stroke="black" points="954.5,-0.5 954.5,-19.5 1103.5,-19.5 1103.5,-0.5 954.5,-0.5"/>
<text text-anchor="middle" x="1029" y="-7.5" font-family="Helvetica,sans-Serif" font-size="10.00">src/drv8704_pwm_general.cpp</text>
</a>
</g>
</g>
<!-- Node9&#45;&gt;Node11 -->
<g id="edge11" class="edge">
<title>Node9&#45;&gt;Node11</title>
<path fill="none" stroke="midnightblue" d="M968.1,-50.62C983.26,-40.76 1002.88,-27.99 1015.7,-19.65"/>
<polygon fill="midnightblue" stroke="midnightblue" points="965.81,-47.94 959.34,-56.32 969.63,-53.8 965.81,-47.94"/>
</g>
<!-- Node12 -->
<g id="node12" class="node">
<title>Node12</title>
<g id="a_node12"><a xlink:href="drv8704__pwm__stm_8cpp.html" target="_top" xlink:title="STM hardware&#45;PWM backend for DRV8704 PWM input generation.">
<polygon fill="white" stroke="black" points="1122,-0.5 1122,-19.5 1256,-19.5 1256,-0.5 1122,-0.5"/>
<text text-anchor="middle" x="1189" y="-7.5" font-family="Helvetica,sans-Serif" font-size="10.00">src/drv8704_pwm_stm.cpp</text>
</a>
</g>
</g>
<!-- Node9&#45;&gt;Node12 -->
<g id="edge12" class="edge">
<title>Node9&#45;&gt;Node12</title>
<path fill="none" stroke="midnightblue" d="M994.52,-54.22C1040.44,-44.01 1108.45,-28.9 1150.68,-19.52"/>
<polygon fill="midnightblue" stroke="midnightblue" points="993.51,-50.86 984.5,-56.44 995.03,-57.69 993.51,-50.86"/>
</g>
<!-- Node13 -->
<g id="node13" class="node">
<title>Node13</title>
<g id="a_node13"><a xlink:href="drv8704__pwm__teensy_8cpp.html" target="_top" xlink:title="Teensy hardware&#45;PWM backend for DRV8704 PWM input generation.">
<polygon fill="white" stroke="black" points="1274,-0.5 1274,-19.5 1420,-19.5 1420,-0.5 1274,-0.5"/>
<text text-anchor="middle" x="1347" y="-7.5" font-family="Helvetica,sans-Serif" font-size="10.00">src/drv8704_pwm_teensy.cpp</text>
</a>
</g>
</g>
<!-- Node9&#45;&gt;Node13 -->
<g id="edge13" class="edge">
<title>Node9&#45;&gt;Node13</title>
<path fill="none" stroke="midnightblue" d="M1007.4,-56.73C1082.18,-46.66 1207.88,-29.73 1283.57,-19.54"/>
<polygon fill="midnightblue" stroke="midnightblue" points="1006.64,-53.3 997.19,-58.11 1007.57,-60.24 1006.64,-53.3"/>
</g>
</g>
</svg>
