<?xml version="1.0" encoding="UTF-8" standalone="no"?>
<!DOCTYPE svg PUBLIC "-//W3C//DTD SVG 1.1//EN"
 "http://www.w3.org/Graphics/SVG/1.1/DTD/svg11.dtd">
<!-- Generated by graphviz version 2.43.0 (0)
 -->
<!-- Title: src/drv8704_defs.h Pages: 1 -->
<svg width="892pt" height="140pt"
 viewBox="0.00 0.00 892.00 140.00" xmlns="http://www.w3.org/2000/svg" xmlns:xlink="http://www.w3.org/1999/xlink">
<g id="graph0" class="graph" transform="scale(1 1) rotate(0) translate(4 136)">
<title>src/drv8704_defs.h</title>
<polygon fill="white" stroke="transparent" points="-4,4 -4,-136 888,-136 888,4 -4,4"/>
<!-- Node1 -->
<g id="node1" class="node">
<title>Node1</title>
<g id="a_node1"><a xlink:title="Constants, register addresses, masks, and defaults for the DRV8704 driver.">
<polygon fill="#bfbfbf" stroke="black" points="524,-112.5 524,-131.5 624,-131.5 624,-112.5 524,-112.5"/>
<text text-anchor="middle" x="574" y="-119.5" font-family="Helvetica,sans-Serif" font-size="10.00">src/drv8704_defs.h</text>
</a>
</g>
</g>
<!-- Node2 -->
<g id="node2" class="node">
<title>Node2</title>
<g id="a_node2"><a xlink:href="drv8704_8h.html" target="_top" xlink:title="Public Arduino API for the DRV8704 dual H&#45;bridge gate driver.">
<polygon fill="white" stroke="black" points="330,-56.5 330,-75.5 406,-75.5 406,-56.5 330,-56.5"/>
<text text-anchor="middle" x="368" y="-63.5" font-family="Helvetica,sans-Serif" font-size="10.00">src/drv8704.h</text>
</a>
</g>
</g>
<!-- Node1&#45;&gt;Node2 -->
<g id="edge1" class="edge">
<title>Node1&#45;&gt;Node2</title>
<path fill="none" stroke="midnightblue" d="M531.38,-109.83C492.49,-99.63 435.84,-84.78 400.49,-75.52"/>
<polygon fill="midnightblue" stroke="midnightblue" points="530.8,-113.29 541.36,-112.44 532.57,-106.52 530.8,-113.29"/>
</g>
<!-- Node9 -->
<g id="node9" class="node">
<title>Node9</title>
<g id="a_node9"><a xlink:href="drv8704__pwm__esp32_8cpp.html" target="_top" xlink:title="ESP32 LEDC backend for DRV8704 PWM input generation.">
<polygon fill="white" stroke="black" points="424,-56.5 424,-75.5 568,-75.5 568,-56.5 424,-56.5"/>
<text text-anchor="middle" x="496" y="-63.5" font-family="Helvetica,sans-Serif" font-size="10.00">src/drv8704_pwm_esp32.cpp</text>
</a>
</g>
</g>
<!-- Node1&#45;&gt;Node9 -->
<g id="edge8" class="edge">
<title>Node1&#45;&gt;Node9</title>
<path fill="none" stroke="midnightblue" d="M553.23,-106.62C538.98,-96.76 520.54,-83.99 508.5,-75.65"/>
<polygon fill="midnightblue" stroke="midnightblue" points="551.25,-109.51 561.47,-112.32 555.24,-103.75 551.25,-109.51"/>
</g>
<!-- Node10 -->
<g id="node10" class="node">
<title>Node10</title>
<g id="a_node10"><a xlink:href="drv8704__pwm__stm_8cpp.html" target="_top" xlink:title="STM hardware&#45;PWM backend for DRV8704 PWM input generation.">
<polygon fill="white" stroke="black" points="586,-56.5 586,-75.5 720,-75.5 720,-56.5 586,-56.5"/>
<text text-anchor="middle" x="653" y="-63.5" font-family="Helvetica,sans-Serif" font-size="10.00">src/drv8704_pwm_stm.cpp</text>
</a>
</g>
</g>
<!-- Node1&#45;&gt;Node10 -->
<g id="edge9" class="edge">
<title>Node1&#45;&gt;Node10</title>
<path fill="none" stroke="midnightblue" d="M595.03,-106.62C609.47,-96.76 628.14,-83.99 640.34,-75.65"/>
<polygon fill="midnightblue" stroke="midnightblue" points="592.97,-103.79 586.69,-112.32 596.92,-109.57 592.97,-103.79"/>
</g>
<!-- Node11 -->
<g id="node11" class="node">
<title>Node11</title>
<g id="a_node11"><a xlink:href="drv8704__pwm__teensy_8cpp.html" target="_top" xlink:title="Teensy hardware&#45;PWM backend for DRV8704 PWM input generation.">
<polygon fill="white" stroke="black" points="738,-56.5 738,-75.5 884,-75.5 884,-56.5 738,-56.5"/>
<text text-anchor="middle" x="811" y="-63.5" font-family="Helvetica,sans-Serif" font-size="10.00">src/drv8704_pwm_teensy.cpp</text>
</a>
</g>
</g>
<!-- Node1&#45;&gt;Node11 -->
<g id="edge10" class="edge">
<title>Node1&#45;&gt;Node11</title>
<path fill="none" stroke="midnightblue" d="M621.32,-110.22C666.11,-100.01 732.44,-84.9 773.62,-75.52"/>
<polygon fill="midnightblue" stroke="midnightblue" points="620.53,-106.81 611.55,-112.44 622.08,-113.63 620.53,-106.81"/>
</g>
<!-- Node3 -->
<g id="node3" class="node">
<title>Node3</title>
<g id="a_node3"><a xlink:href="drv8704_8cpp.html" target="_top" xlink:title="Lifecycle and top&#45;level orchestration for the DRV8704 driver.">
<polygon fill="white" stroke="black" points="0,-0.5 0,-19.5 86,-19.5 86,-0.5 0,-0.5"/>
<text text-anchor="middle" x="43" y="-7.5" font-family="Helvetica,sans-Serif" font-size="10.00">src/drv8704.cpp</text>
</a>
</g>
</g>
<!-- Node2&#45;&gt;Node3 -->
<g id="edge2" class="edge">
<title>Node2&#45;&gt;Node3</title>
<path fill="none" stroke="midnightblue" d="M319.47,-57.12C264.87,-48.23 173.54,-33.27 95,-20 92.11,-19.51 89.13,-19 86.13,-18.49"/>
<polygon fill="midnightblue" stroke="midnightblue" points="319.12,-60.61 329.55,-58.76 320.25,-53.7 319.12,-60.61"/>
</g>
<!-- Node4 -->
<g id="node4" class="node">
<title>Node4</title>
<g id="a_node4"><a xlink:href="drv8704__bridge_8cpp.html" target="_top" xlink:title="Runtime bridge GPIO helpers for the DRV8704 driver.">
<polygon fill="white" stroke="black" points="104,-0.5 104,-19.5 222,-19.5 222,-0.5 104,-0.5"/>
<text text-anchor="middle" x="163" y="-7.5" font-family="Helvetica,sans-Serif" font-size="10.00">src/drv8704_bridge.cpp</text>
</a>
</g>
</g>
<!-- Node2&#45;&gt;Node4 -->
<g id="edge3" class="edge">
<title>Node2&#45;&gt;Node4</title>
<path fill="none" stroke="midnightblue" d="M325.59,-53.83C286.89,-43.63 230.51,-28.78 195.33,-19.52"/>
<polygon fill="midnightblue" stroke="midnightblue" points="324.96,-57.28 335.52,-56.44 326.74,-50.51 324.96,-57.28"/>
</g>
<!-- Node5 -->
<g id="node5" class="node">
<title>Node5</title>
<g id="a_node5"><a xlink:href="drv8704__comm_8cpp.html" target="_top" xlink:title="SPI transport helpers for the DRV8704 driver.">
<polygon fill="white" stroke="black" points="240.5,-0.5 240.5,-19.5 359.5,-19.5 359.5,-0.5 240.5,-0.5"/>
<text text-anchor="middle" x="300" y="-7.5" font-family="Helvetica,sans-Serif" font-size="10.00">src/drv8704_comm.cpp</text>
</a>
</g>
</g>
<!-- Node2&#45;&gt;Node5 -->
<g id="edge4" class="edge">
<title>Node2&#45;&gt;Node5</title>
<path fill="none" stroke="midnightblue" d="M349.24,-50.1C337,-40.38 321.44,-28.03 311.12,-19.83"/>
<polygon fill="midnightblue" stroke="midnightblue" points="347.07,-52.85 357.07,-56.32 351.42,-47.36 347.07,-52.85"/>
</g>
<!-- Node6 -->
<g id="node6" class="node">
<title>Node6</title>
<g id="a_node6"><a xlink:href="drv8704__config_8cpp.html" target="_top" xlink:title="Configuration helpers for the DRV8704 driver.">
<polygon fill="white" stroke="black" points="378,-0.5 378,-19.5 496,-19.5 496,-0.5 378,-0.5"/>
<text text-anchor="middle" x="437" y="-7.5" font-family="Helvetica,sans-Serif" font-size="10.00">src/drv8704_config.cpp</text>
</a>
</g>
</g>
<!-- Node2&#45;&gt;Node6 -->
<g id="edge5" class="edge">
<title>Node2&#45;&gt;Node6</title>
<path fill="none" stroke="midnightblue" d="M387.04,-50.1C399.46,-40.38 415.24,-28.03 425.71,-19.83"/>
<polygon fill="midnightblue" stroke="midnightblue" points="384.8,-47.4 379.09,-56.32 389.12,-52.92 384.8,-47.4"/>
</g>
<!-- Node7 -->
<g id="node7" class="node">
<title>Node7</title>
<g id="a_node7"><a xlink:href="drv8704__current_8cpp.html" target="_top" xlink:title="Current&#45;limit and current&#45;drive helpers for the DRV8704 driver.">
<polygon fill="white" stroke="black" points="514,-0.5 514,-19.5 636,-19.5 636,-0.5 514,-0.5"/>
<text text-anchor="middle" x="575" y="-7.5" font-family="Helvetica,sans-Serif" font-size="10.00">src/drv8704_current.cpp</text>
</a>
</g>
</g>
<!-- Node2&#45;&gt;Node7 -->
<g id="edge6" class="edge">
<title>Node2&#45;&gt;Node7</title>
<path fill="none" stroke="midnightblue" d="M410.82,-53.83C449.91,-43.63 506.83,-28.78 542.35,-19.52"/>
<polygon fill="midnightblue" stroke="midnightblue" points="409.59,-50.53 400.8,-56.44 411.36,-57.31 409.59,-50.53"/>
</g>
<!-- Node8 -->
<g id="node8" class="node">
<title>Node8</title>
<g id="a_node8"><a xlink:href="drv8704__status_8cpp.html" target="_top" xlink:title="Status and fault helpers for the DRV8704 driver.">
<polygon fill="white" stroke="black" points="654.5,-0.5 654.5,-19.5 773.5,-19.5 773.5,-0.5 654.5,-0.5"/>
<text text-anchor="middle" x="714" y="-7.5" font-family="Helvetica,sans-Serif" font-size="10.00">src/drv8704_status.cpp</text>
</a>
</g>
</g>
<!-- Node2&#45;&gt;Node8 -->
<g id="edge7" class="edge">
<title>Node2&#45;&gt;Node8</title>
<path fill="none" stroke="midnightblue" d="M416.14,-55.86C504.69,-40.84 596.07,-27.5 654.32,-19.27"/>
<polygon fill="midnightblue" stroke="midnightblue" points="415.47,-52.42 406.2,-57.55 416.64,-59.32 415.47,-52.42"/>
</g>
</g>
</svg>
