<?xml version="1.0" encoding="UTF-8" standalone="no"?>
<!DOCTYPE svg PUBLIC "-//W3C//DTD SVG 1.1//EN"
 "http://www.w3.org/Graphics/SVG/1.1/DTD/svg11.dtd">
<!-- Generated by graphviz version 2.43.0 (0)
 -->
<!-- Title: src/drv8704_pwm_general.cpp Pages: 1 -->
<svg width="206pt" height="252pt"
 viewBox="0.00 0.00 205.50 252.00" xmlns="http://www.w3.org/2000/svg" xmlns:xlink="http://www.w3.org/1999/xlink">
<g id="graph0" class="graph" transform="scale(1 1) rotate(0) translate(4 248)">
<title>src/drv8704_pwm_general.cpp</title>
<polygon fill="white" stroke="transparent" points="-4,4 -4,-248 201.5,-248 201.5,4 -4,4"/>
<!-- Node1 -->
<g id="node1" class="node">
<title>Node1</title>
<g id="a_node1"><a xlink:title="Generic Arduino analogWrite backend for DRV8704 PWM input generation.">
<polygon fill="#bfbfbf" stroke="black" points="0.5,-224.5 0.5,-243.5 149.5,-243.5 149.5,-224.5 0.5,-224.5"/>
<text text-anchor="middle" x="75" y="-231.5" font-family="Helvetica,sans-Serif" font-size="10.00">src/drv8704_pwm_general.cpp</text>
</a>
</g>
</g>
<!-- Node2 -->
<g id="node2" class="node">
<title>Node2</title>
<g id="a_node2"><a xlink:href="drv8704__pwm_8h.html" target="_top" xlink:title="Shared abstraction for platform PWM generation backends.">
<polygon fill="white" stroke="black" points="32,-168.5 32,-187.5 118,-187.5 118,-168.5 32,-168.5"/>
<text text-anchor="middle" x="75" y="-175.5" font-family="Helvetica,sans-Serif" font-size="10.00">drv8704_pwm.h</text>
</a>
</g>
</g>
<!-- Node1&#45;&gt;Node2 -->
<g id="edge1" class="edge">
<title>Node1&#45;&gt;Node2</title>
<path fill="none" stroke="midnightblue" d="M75,-224.08C75,-217.01 75,-206.86 75,-197.99"/>
<polygon fill="midnightblue" stroke="midnightblue" points="78.5,-197.75 75,-187.75 71.5,-197.75 78.5,-197.75"/>
</g>
<!-- Node3 -->
<g id="node3" class="node">
<title>Node3</title>
<g id="a_node3"><a xlink:title=" ">
<polygon fill="white" stroke="#bfbfbf" points="0,-112.5 0,-131.5 58,-131.5 58,-112.5 0,-112.5"/>
<text text-anchor="middle" x="29" y="-119.5" font-family="Helvetica,sans-Serif" font-size="10.00">Arduino.h</text>
</a>
</g>
</g>
<!-- Node2&#45;&gt;Node3 -->
<g id="edge2" class="edge">
<title>Node2&#45;&gt;Node3</title>
<path fill="none" stroke="midnightblue" d="M67.4,-168.08C60.77,-160.3 50.98,-148.8 42.94,-139.37"/>
<polygon fill="midnightblue" stroke="midnightblue" points="45.6,-137.09 36.45,-131.75 40.27,-141.63 45.6,-137.09"/>
</g>
<!-- Node4 -->
<g id="node4" class="node">
<title>Node4</title>
<g id="a_node4"><a xlink:href="drv8704__types_8h.html" target="_top" xlink:title="Public enums and data structures for the DRV8704 driver.">
<polygon fill="white" stroke="black" points="76.5,-112.5 76.5,-131.5 165.5,-131.5 165.5,-112.5 76.5,-112.5"/>
<text text-anchor="middle" x="121" y="-119.5" font-family="Helvetica,sans-Serif" font-size="10.00">drv8704_types.h</text>
</a>
</g>
</g>
<!-- Node2&#45;&gt;Node4 -->
<g id="edge3" class="edge">
<title>Node2&#45;&gt;Node4</title>
<path fill="none" stroke="midnightblue" d="M82.6,-168.08C89.23,-160.3 99.02,-148.8 107.06,-139.37"/>
<polygon fill="midnightblue" stroke="midnightblue" points="109.73,-141.63 113.55,-131.75 104.4,-137.09 109.73,-141.63"/>
</g>
<!-- Node5 -->
<g id="node5" class="node">
<title>Node5</title>
<g id="a_node5"><a xlink:title=" ">
<polygon fill="white" stroke="#bfbfbf" points="65.5,-0.5 65.5,-19.5 114.5,-19.5 114.5,-0.5 65.5,-0.5"/>
<text text-anchor="middle" x="90" y="-7.5" font-family="Helvetica,sans-Serif" font-size="10.00">stdint.h</text>
</a>
</g>
</g>
<!-- Node4&#45;&gt;Node5 -->
<g id="edge4" class="edge">
<title>Node4&#45;&gt;Node5</title>
<path fill="none" stroke="midnightblue" d="M117.92,-112.44C114.73,-103.43 109.71,-88.82 106,-76 101.55,-60.63 97.26,-42.99 94.25,-29.97"/>
<polygon fill="midnightblue" stroke="midnightblue" points="97.58,-28.86 91.95,-19.89 90.76,-30.42 97.58,-28.86"/>
</g>
<!-- Node6 -->
<g id="node6" class="node">
<title>Node6</title>
<g id="a_node6"><a xlink:href="drv8704__defs_8h.html" target="_top" xlink:title="Constants, register addresses, masks, and defaults for the DRV8704 driver.">
<polygon fill="white" stroke="black" points="114.5,-56.5 114.5,-75.5 197.5,-75.5 197.5,-56.5 114.5,-56.5"/>
<text text-anchor="middle" x="156" y="-63.5" font-family="Helvetica,sans-Serif" font-size="10.00">drv8704_defs.h</text>
</a>
</g>
</g>
<!-- Node4&#45;&gt;Node6 -->
<g id="edge5" class="edge">
<title>Node4&#45;&gt;Node6</title>
<path fill="none" stroke="midnightblue" d="M126.78,-112.08C131.67,-104.53 138.83,-93.49 144.83,-84.23"/>
<polygon fill="midnightblue" stroke="midnightblue" points="147.83,-86.05 150.33,-75.75 141.95,-82.24 147.83,-86.05"/>
</g>
<!-- Node6&#45;&gt;Node5 -->
<g id="edge6" class="edge">
<title>Node6&#45;&gt;Node5</title>
<path fill="none" stroke="midnightblue" d="M145.4,-56.32C135.54,-48.26 120.65,-36.08 108.78,-26.37"/>
<polygon fill="midnightblue" stroke="midnightblue" points="110.75,-23.46 100.8,-19.83 106.32,-28.88 110.75,-23.46"/>
</g>
<!-- Node7 -->
<g id="node7" class="node">
<title>Node7</title>
<g id="a_node7"><a xlink:title=" ">
<polygon fill="white" stroke="#bfbfbf" points="135.5,-0.5 135.5,-19.5 176.5,-19.5 176.5,-0.5 135.5,-0.5"/>
<text text-anchor="middle" x="156" y="-7.5" font-family="Helvetica,sans-Serif" font-size="10.00">SPI.h</text>
</a>
</g>
</g>
<!-- Node6&#45;&gt;Node7 -->
<g id="edge7" class="edge">
<title>Node6&#45;&gt;Node7</title>
<path fill="none" stroke="midnightblue" d="M156,-56.08C156,-49.01 156,-38.86 156,-29.99"/>
<polygon fill="midnightblue" stroke="midnightblue" points="159.5,-29.75 156,-19.75 152.5,-29.75 159.5,-29.75"/>
</g>
</g>
</svg>
