<?xml version="1.0" encoding="UTF-8" standalone="no"?>
<!DOCTYPE svg PUBLIC "-//W3C//DTD SVG 1.1//EN"
 "http://www.w3.org/Graphics/SVG/1.1/DTD/svg11.dtd">
<!-- Generated by graphviz version 2.43.0 (0)
 -->
<!-- Title: src/drv8704_regs_typedefs.h Pages: 1 -->
<svg width="782pt" height="140pt"
 viewBox="0.00 0.00 781.50 140.00" xmlns="http://www.w3.org/2000/svg" xmlns:xlink="http://www.w3.org/1999/xlink">
<g id="graph0" class="graph" transform="scale(1 1) rotate(0) translate(4 136)">
<title>src/drv8704_regs_typedefs.h</title>
<polygon fill="white" stroke="transparent" points="-4,4 -4,-136 777.5,-136 777.5,4 -4,4"/>
<!-- Node1 -->
<g id="node1" class="node">
<title>Node1</title>
<g id="a_node1"><a xlink:title="Typed register views for the DRV8704 register set.">
<polygon fill="#bfbfbf" stroke="black" points="296.5,-112.5 296.5,-131.5 439.5,-131.5 439.5,-112.5 296.5,-112.5"/>
<text text-anchor="middle" x="368" y="-119.5" font-family="Helvetica,sans-Serif" font-size="10.00">src/drv8704_regs_typedefs.h</text>
</a>
</g>
</g>
<!-- Node2 -->
<g id="node2" class="node">
<title>Node2</title>
<g id="a_node2"><a xlink:href="drv8704_8h.html" target="_top" xlink:title="Public Arduino API for the DRV8704 dual H&#45;bridge gate driver.">
<polygon fill="white" stroke="black" points="330,-56.5 330,-75.5 406,-75.5 406,-56.5 330,-56.5"/>
<text text-anchor="middle" x="368" y="-63.5" font-family="Helvetica,sans-Serif" font-size="10.00">src/drv8704.h</text>
</a>
</g>
</g>
<!-- Node1&#45;&gt;Node2 -->
<g id="edge1" class="edge">
<title>Node1&#45;&gt;Node2</title>
<path fill="none" stroke="midnightblue" d="M368,-101.8C368,-92.91 368,-82.78 368,-75.75"/>
<polygon fill="midnightblue" stroke="midnightblue" points="364.5,-102.08 368,-112.08 371.5,-102.08 364.5,-102.08"/>
</g>
<!-- Node3 -->
<g id="node3" class="node">
<title>Node3</title>
<g id="a_node3"><a xlink:href="drv8704_8cpp.html" target="_top" xlink:title="Lifecycle and top&#45;level orchestration for the DRV8704 driver.">
<polygon fill="white" stroke="black" points="0,-0.5 0,-19.5 86,-19.5 86,-0.5 0,-0.5"/>
<text text-anchor="middle" x="43" y="-7.5" font-family="Helvetica,sans-Serif" font-size="10.00">src/drv8704.cpp</text>
</a>
</g>
</g>
<!-- Node2&#45;&gt;Node3 -->
<g id="edge2" class="edge">
<title>Node2&#45;&gt;Node3</title>
<path fill="none" stroke="midnightblue" d="M319.47,-57.12C264.87,-48.23 173.54,-33.27 95,-20 92.11,-19.51 89.13,-19 86.13,-18.49"/>
<polygon fill="midnightblue" stroke="midnightblue" points="319.12,-60.61 329.55,-58.76 320.25,-53.7 319.12,-60.61"/>
</g>
<!-- Node4 -->
<g id="node4" class="node">
<title>Node4</title>
<g id="a_node4"><a xlink:href="drv8704__bridge_8cpp.html" target="_top" xlink:title="Runtime bridge GPIO helpers for the DRV8704 driver.">
<polygon fill="white" stroke="black" points="104,-0.5 104,-19.5 222,-19.5 222,-0.5 104,-0.5"/>
<text text-anchor="middle" x="163" y="-7.5" font-family="Helvetica,sans-Serif" font-size="10.00">src/drv8704_bridge.cpp</text>
</a>
</g>
</g>
<!-- Node2&#45;&gt;Node4 -->
<g id="edge3" class="edge">
<title>Node2&#45;&gt;Node4</title>
<path fill="none" stroke="midnightblue" d="M325.59,-53.83C286.89,-43.63 230.51,-28.78 195.33,-19.52"/>
<polygon fill="midnightblue" stroke="midnightblue" points="324.96,-57.28 335.52,-56.44 326.74,-50.51 324.96,-57.28"/>
</g>
<!-- Node5 -->
<g id="node5" class="node">
<title>Node5</title>
<g id="a_node5"><a xlink:href="drv8704__comm_8cpp.html" target="_top" xlink:title="SPI transport helpers for the DRV8704 driver.">
<polygon fill="white" stroke="black" points="240.5,-0.5 240.5,-19.5 359.5,-19.5 359.5,-0.5 240.5,-0.5"/>
<text text-anchor="middle" x="300" y="-7.5" font-family="Helvetica,sans-Serif" font-size="10.00">src/drv8704_comm.cpp</text>
</a>
</g>
</g>
<!-- Node2&#45;&gt;Node5 -->
<g id="edge4" class="edge">
<title>Node2&#45;&gt;Node5</title>
<path fill="none" stroke="midnightblue" d="M349.24,-50.1C337,-40.38 321.44,-28.03 311.12,-19.83"/>
<polygon fill="midnightblue" stroke="midnightblue" points="347.07,-52.85 357.07,-56.32 351.42,-47.36 347.07,-52.85"/>
</g>
<!-- Node6 -->
<g id="node6" class="node">
<title>Node6</title>
<g id="a_node6"><a xlink:href="drv8704__config_8cpp.html" target="_top" xlink:title="Configuration helpers for the DRV8704 driver.">
<polygon fill="white" stroke="black" points="378,-0.5 378,-19.5 496,-19.5 496,-0.5 378,-0.5"/>
<text text-anchor="middle" x="437" y="-7.5" font-family="Helvetica,sans-Serif" font-size="10.00">src/drv8704_config.cpp</text>
</a>
</g>
</g>
<!-- Node2&#45;&gt;Node6 -->
<g id="edge5" class="edge">
<title>Node2&#45;&gt;Node6</title>
<path fill="none" stroke="midnightblue" d="M387.04,-50.1C399.46,-40.38 415.24,-28.03 425.71,-19.83"/>
<polygon fill="midnightblue" stroke="midnightblue" points="384.8,-47.4 379.09,-56.32 389.12,-52.92 384.8,-47.4"/>
</g>
<!-- Node7 -->
<g id="node7" class="node">
<title>Node7</title>
<g id="a_node7"><a xlink:href="drv8704__current_8cpp.html" target="_top" xlink:title="Current&#45;limit and current&#45;drive helpers for the DRV8704 driver.">
<polygon fill="white" stroke="black" points="514,-0.5 514,-19.5 636,-19.5 636,-0.5 514,-0.5"/>
<text text-anchor="middle" x="575" y="-7.5" font-family="Helvetica,sans-Serif" font-size="10.00">src/drv8704_current.cpp</text>
</a>
</g>
</g>
<!-- Node2&#45;&gt;Node7 -->
<g id="edge6" class="edge">
<title>Node2&#45;&gt;Node7</title>
<path fill="none" stroke="midnightblue" d="M410.82,-53.83C449.91,-43.63 506.83,-28.78 542.35,-19.52"/>
<polygon fill="midnightblue" stroke="midnightblue" points="409.59,-50.53 400.8,-56.44 411.36,-57.31 409.59,-50.53"/>
</g>
<!-- Node8 -->
<g id="node8" class="node">
<title>Node8</title>
<g id="a_node8"><a xlink:href="drv8704__status_8cpp.html" target="_top" xlink:title="Status and fault helpers for the DRV8704 driver.">
<polygon fill="white" stroke="black" points="654.5,-0.5 654.5,-19.5 773.5,-19.5 773.5,-0.5 654.5,-0.5"/>
<text text-anchor="middle" x="714" y="-7.5" font-family="Helvetica,sans-Serif" font-size="10.00">src/drv8704_status.cpp</text>
</a>
</g>
</g>
<!-- Node2&#45;&gt;Node8 -->
<g id="edge7" class="edge">
<title>Node2&#45;&gt;Node8</title>
<path fill="none" stroke="midnightblue" d="M416.22,-57.47C480.12,-47.5 592.55,-29.96 659.47,-19.51"/>
<polygon fill="midnightblue" stroke="midnightblue" points="415.36,-54.07 406.02,-59.07 416.44,-60.98 415.36,-54.07"/>
</g>
</g>
</svg>
