<?xml version="1.0" encoding="UTF-8" standalone="no"?>
<!DOCTYPE svg PUBLIC "-//W3C//DTD SVG 1.1//EN"
 "http://www.w3.org/Graphics/SVG/1.1/DTD/svg11.dtd">
<!-- Generated by graphviz version 2.43.0 (0)
 -->
<!-- Title: src/drv8704_current.cpp Pages: 1 -->
<svg width="457pt" height="196pt"
 viewBox="0.00 0.00 457.00 196.00" xmlns="http://www.w3.org/2000/svg" xmlns:xlink="http://www.w3.org/1999/xlink">
<g id="graph0" class="graph" transform="scale(1 1) rotate(0) translate(4 192)">
<title>src/drv8704_current.cpp</title>
<polygon fill="white" stroke="transparent" points="-4,4 -4,-192 453,-192 453,4 -4,4"/>
<!-- Node1 -->
<g id="node1" class="node">
<title>Node1</title>
<g id="a_node1"><a xlink:title="Current&#45;limit and current&#45;drive helpers for the DRV8704 driver.">
<polygon fill="#bfbfbf" stroke="black" points="95,-168.5 95,-187.5 217,-187.5 217,-168.5 95,-168.5"/>
<text text-anchor="middle" x="156" y="-175.5" font-family="Helvetica,sans-Serif" font-size="10.00">src/drv8704_current.cpp</text>
</a>
</g>
</g>
<!-- Node2 -->
<g id="node2" class="node">
<title>Node2</title>
<g id="a_node2"><a xlink:href="drv8704_8h.html" target="_top" xlink:title="Public Arduino API for the DRV8704 dual H&#45;bridge gate driver.">
<polygon fill="white" stroke="black" points="126.5,-112.5 126.5,-131.5 185.5,-131.5 185.5,-112.5 126.5,-112.5"/>
<text text-anchor="middle" x="156" y="-119.5" font-family="Helvetica,sans-Serif" font-size="10.00">drv8704.h</text>
</a>
</g>
</g>
<!-- Node1&#45;&gt;Node2 -->
<g id="edge1" class="edge">
<title>Node1&#45;&gt;Node2</title>
<path fill="none" stroke="midnightblue" d="M156,-168.08C156,-161.01 156,-150.86 156,-141.99"/>
<polygon fill="midnightblue" stroke="midnightblue" points="159.5,-141.75 156,-131.75 152.5,-141.75 159.5,-141.75"/>
</g>
<!-- Node3 -->
<g id="node3" class="node">
<title>Node3</title>
<g id="a_node3"><a xlink:title=" ">
<polygon fill="white" stroke="#bfbfbf" points="0,-56.5 0,-75.5 58,-75.5 58,-56.5 0,-56.5"/>
<text text-anchor="middle" x="29" y="-63.5" font-family="Helvetica,sans-Serif" font-size="10.00">Arduino.h</text>
</a>
</g>
</g>
<!-- Node2&#45;&gt;Node3 -->
<g id="edge2" class="edge">
<title>Node2&#45;&gt;Node3</title>
<path fill="none" stroke="midnightblue" d="M135.88,-112.44C114.98,-103.56 82.07,-89.56 58.28,-79.45"/>
<polygon fill="midnightblue" stroke="midnightblue" points="59.6,-76.21 49.03,-75.52 56.86,-82.65 59.6,-76.21"/>
</g>
<!-- Node4 -->
<g id="node4" class="node">
<title>Node4</title>
<g id="a_node4"><a xlink:title=" ">
<polygon fill="white" stroke="#bfbfbf" points="100.5,-0.5 100.5,-19.5 141.5,-19.5 141.5,-0.5 100.5,-0.5"/>
<text text-anchor="middle" x="121" y="-7.5" font-family="Helvetica,sans-Serif" font-size="10.00">SPI.h</text>
</a>
</g>
</g>
<!-- Node2&#45;&gt;Node4 -->
<g id="edge3" class="edge">
<title>Node2&#45;&gt;Node4</title>
<path fill="none" stroke="midnightblue" d="M140.27,-112.24C128.11,-104.48 112.19,-91.93 105,-76 98.14,-60.81 103.99,-42.23 110.46,-28.84"/>
<polygon fill="midnightblue" stroke="midnightblue" points="113.7,-30.21 115.33,-19.74 107.53,-26.91 113.7,-30.21"/>
</g>
<!-- Node5 -->
<g id="node5" class="node">
<title>Node5</title>
<g id="a_node5"><a xlink:href="drv8704__defs_8h.html" target="_top" xlink:title="Constants, register addresses, masks, and defaults for the DRV8704 driver.">
<polygon fill="white" stroke="black" points="114.5,-56.5 114.5,-75.5 197.5,-75.5 197.5,-56.5 114.5,-56.5"/>
<text text-anchor="middle" x="156" y="-63.5" font-family="Helvetica,sans-Serif" font-size="10.00">drv8704_defs.h</text>
</a>
</g>
</g>
<!-- Node2&#45;&gt;Node5 -->
<g id="edge4" class="edge">
<title>Node2&#45;&gt;Node5</title>
<path fill="none" stroke="midnightblue" d="M156,-112.08C156,-105.01 156,-94.86 156,-85.99"/>
<polygon fill="midnightblue" stroke="midnightblue" points="159.5,-85.75 156,-75.75 152.5,-85.75 159.5,-85.75"/>
</g>
<!-- Node7 -->
<g id="node7" class="node">
<title>Node7</title>
<g id="a_node7"><a xlink:href="drv8704__types_8h.html" target="_top" xlink:title="Public enums and data structures for the DRV8704 driver.">
<polygon fill="white" stroke="black" points="215.5,-56.5 215.5,-75.5 304.5,-75.5 304.5,-56.5 215.5,-56.5"/>
<text text-anchor="middle" x="260" y="-63.5" font-family="Helvetica,sans-Serif" font-size="10.00">drv8704_types.h</text>
</a>
</g>
</g>
<!-- Node2&#45;&gt;Node7 -->
<g id="edge7" class="edge">
<title>Node2&#45;&gt;Node7</title>
<path fill="none" stroke="midnightblue" d="M172.71,-112.32C189.31,-103.7 215,-90.36 234.22,-80.39"/>
<polygon fill="midnightblue" stroke="midnightblue" points="236.07,-83.37 243.33,-75.65 232.84,-77.16 236.07,-83.37"/>
</g>
<!-- Node8 -->
<g id="node8" class="node">
<title>Node8</title>
<g id="a_node8"><a xlink:href="drv8704__regs__typedefs_8h.html" target="_top" xlink:title="Typed register views for the DRV8704 register set.">
<polygon fill="white" stroke="black" points="323,-56.5 323,-75.5 449,-75.5 449,-56.5 323,-56.5"/>
<text text-anchor="middle" x="386" y="-63.5" font-family="Helvetica,sans-Serif" font-size="10.00">drv8704_regs_typedefs.h</text>
</a>
</g>
</g>
<!-- Node2&#45;&gt;Node8 -->
<g id="edge9" class="edge">
<title>Node2&#45;&gt;Node8</title>
<path fill="none" stroke="midnightblue" d="M185.6,-114.05C224.63,-104.89 293.72,-88.67 339.69,-77.87"/>
<polygon fill="midnightblue" stroke="midnightblue" points="340.77,-81.22 349.7,-75.52 339.17,-74.4 340.77,-81.22"/>
</g>
<!-- Node5&#45;&gt;Node4 -->
<g id="edge6" class="edge">
<title>Node5&#45;&gt;Node4</title>
<path fill="none" stroke="midnightblue" d="M150.22,-56.08C145.33,-48.53 138.17,-37.49 132.17,-28.23"/>
<polygon fill="midnightblue" stroke="midnightblue" points="135.05,-26.24 126.67,-19.75 129.17,-30.05 135.05,-26.24"/>
</g>
<!-- Node6 -->
<g id="node6" class="node">
<title>Node6</title>
<g id="a_node6"><a xlink:title=" ">
<polygon fill="white" stroke="#bfbfbf" points="235.5,-0.5 235.5,-19.5 284.5,-19.5 284.5,-0.5 235.5,-0.5"/>
<text text-anchor="middle" x="260" y="-7.5" font-family="Helvetica,sans-Serif" font-size="10.00">stdint.h</text>
</a>
</g>
</g>
<!-- Node5&#45;&gt;Node6 -->
<g id="edge5" class="edge">
<title>Node5&#45;&gt;Node6</title>
<path fill="none" stroke="midnightblue" d="M172.71,-56.32C189.31,-47.7 215,-34.36 234.22,-24.39"/>
<polygon fill="midnightblue" stroke="midnightblue" points="236.07,-27.37 243.33,-19.65 232.84,-21.16 236.07,-27.37"/>
</g>
<!-- Node7&#45;&gt;Node6 -->
<g id="edge8" class="edge">
<title>Node7&#45;&gt;Node6</title>
<path fill="none" stroke="midnightblue" d="M260,-56.08C260,-49.01 260,-38.86 260,-29.99"/>
<polygon fill="midnightblue" stroke="midnightblue" points="263.5,-29.75 260,-19.75 256.5,-29.75 263.5,-29.75"/>
</g>
<!-- Node8&#45;&gt;Node6 -->
<g id="edge10" class="edge">
<title>Node8&#45;&gt;Node6</title>
<path fill="none" stroke="midnightblue" d="M366.03,-56.44C345.39,-47.6 312.94,-33.69 289.37,-23.59"/>
<polygon fill="midnightblue" stroke="midnightblue" points="290.44,-20.24 279.87,-19.52 287.68,-26.67 290.44,-20.24"/>
</g>
</g>
</svg>
