<?xml version="1.0" encoding="UTF-8" standalone="no"?>
<!DOCTYPE svg PUBLIC "-//W3C//DTD SVG 1.1//EN"
 "http://www.w3.org/Graphics/SVG/1.1/DTD/svg11.dtd">
<!-- Generated by graphviz version 2.43.0 (0)
 -->
<!-- Title: src/drv8704_pwm_teensy.cpp Pages: 1 -->
<svg width="272pt" height="196pt"
 viewBox="0.00 0.00 271.50 196.00" xmlns="http://www.w3.org/2000/svg" xmlns:xlink="http://www.w3.org/1999/xlink">
<g id="graph0" class="graph" transform="scale(1 1) rotate(0) translate(4 192)">
<title>src/drv8704_pwm_teensy.cpp</title>
<polygon fill="white" stroke="transparent" points="-4,4 -4,-192 267.5,-192 267.5,4 -4,4"/>
<!-- Node1 -->
<g id="node1" class="node">
<title>Node1</title>
<g id="a_node1"><a xlink:title="Teensy hardware&#45;PWM backend for DRV8704 PWM input generation.">
<polygon fill="#bfbfbf" stroke="black" points="84,-168.5 84,-187.5 230,-187.5 230,-168.5 84,-168.5"/>
<text text-anchor="middle" x="157" y="-175.5" font-family="Helvetica,sans-Serif" font-size="10.00">src/drv8704_pwm_teensy.cpp</text>
</a>
</g>
</g>
<!-- Node2 -->
<g id="node2" class="node">
<title>Node2</title>
<g id="a_node2"><a xlink:href="drv8704__pwm_8h.html" target="_top" xlink:title="Shared abstraction for platform PWM generation backends.">
<polygon fill="white" stroke="black" points="63,-112.5 63,-131.5 149,-131.5 149,-112.5 63,-112.5"/>
<text text-anchor="middle" x="106" y="-119.5" font-family="Helvetica,sans-Serif" font-size="10.00">drv8704_pwm.h</text>
</a>
</g>
</g>
<!-- Node1&#45;&gt;Node2 -->
<g id="edge1" class="edge">
<title>Node1&#45;&gt;Node2</title>
<path fill="none" stroke="midnightblue" d="M148.58,-168.08C141.15,-160.22 130.15,-148.57 121.19,-139.08"/>
<polygon fill="midnightblue" stroke="midnightblue" points="123.68,-136.62 114.26,-131.75 118.59,-141.42 123.68,-136.62"/>
</g>
<!-- Node6 -->
<g id="node6" class="node">
<title>Node6</title>
<g id="a_node6"><a xlink:href="drv8704__defs_8h.html" target="_top" xlink:title="Constants, register addresses, masks, and defaults for the DRV8704 driver.">
<polygon fill="white" stroke="black" points="167.5,-112.5 167.5,-131.5 250.5,-131.5 250.5,-112.5 167.5,-112.5"/>
<text text-anchor="middle" x="209" y="-119.5" font-family="Helvetica,sans-Serif" font-size="10.00">drv8704_defs.h</text>
</a>
</g>
</g>
<!-- Node1&#45;&gt;Node6 -->
<g id="edge5" class="edge">
<title>Node1&#45;&gt;Node6</title>
<path fill="none" stroke="midnightblue" d="M165.59,-168.08C173.16,-160.22 184.38,-148.57 193.51,-139.08"/>
<polygon fill="midnightblue" stroke="midnightblue" points="196.16,-141.38 200.57,-131.75 191.12,-136.53 196.16,-141.38"/>
</g>
<!-- Node3 -->
<g id="node3" class="node">
<title>Node3</title>
<g id="a_node3"><a xlink:title=" ">
<polygon fill="white" stroke="#bfbfbf" points="0,-56.5 0,-75.5 58,-75.5 58,-56.5 0,-56.5"/>
<text text-anchor="middle" x="29" y="-63.5" font-family="Helvetica,sans-Serif" font-size="10.00">Arduino.h</text>
</a>
</g>
</g>
<!-- Node2&#45;&gt;Node3 -->
<g id="edge2" class="edge">
<title>Node2&#45;&gt;Node3</title>
<path fill="none" stroke="midnightblue" d="M93.63,-112.32C81.84,-104.06 63.87,-91.45 49.86,-81.63"/>
<polygon fill="midnightblue" stroke="midnightblue" points="51.54,-78.53 41.34,-75.65 47.52,-84.26 51.54,-78.53"/>
</g>
<!-- Node4 -->
<g id="node4" class="node">
<title>Node4</title>
<g id="a_node4"><a xlink:href="drv8704__types_8h.html" target="_top" xlink:title="Public enums and data structures for the DRV8704 driver.">
<polygon fill="white" stroke="black" points="76.5,-56.5 76.5,-75.5 165.5,-75.5 165.5,-56.5 76.5,-56.5"/>
<text text-anchor="middle" x="121" y="-63.5" font-family="Helvetica,sans-Serif" font-size="10.00">drv8704_types.h</text>
</a>
</g>
</g>
<!-- Node2&#45;&gt;Node4 -->
<g id="edge3" class="edge">
<title>Node2&#45;&gt;Node4</title>
<path fill="none" stroke="midnightblue" d="M108.48,-112.08C110.49,-104.85 113.39,-94.41 115.89,-85.4"/>
<polygon fill="midnightblue" stroke="midnightblue" points="119.26,-86.32 118.57,-75.75 112.52,-84.45 119.26,-86.32"/>
</g>
<!-- Node5 -->
<g id="node5" class="node">
<title>Node5</title>
<g id="a_node5"><a xlink:title=" ">
<polygon fill="white" stroke="#bfbfbf" points="132.5,-0.5 132.5,-19.5 181.5,-19.5 181.5,-0.5 132.5,-0.5"/>
<text text-anchor="middle" x="157" y="-7.5" font-family="Helvetica,sans-Serif" font-size="10.00">stdint.h</text>
</a>
</g>
</g>
<!-- Node4&#45;&gt;Node5 -->
<g id="edge4" class="edge">
<title>Node4&#45;&gt;Node5</title>
<path fill="none" stroke="midnightblue" d="M126.94,-56.08C131.98,-48.53 139.34,-37.49 145.51,-28.23"/>
<polygon fill="midnightblue" stroke="midnightblue" points="148.53,-30.01 151.17,-19.75 142.71,-26.13 148.53,-30.01"/>
</g>
<!-- Node6&#45;&gt;Node5 -->
<g id="edge6" class="edge">
<title>Node6&#45;&gt;Node5</title>
<path fill="none" stroke="midnightblue" d="M204.92,-112.37C196.45,-94.46 176.82,-52.92 165.48,-28.95"/>
<polygon fill="midnightblue" stroke="midnightblue" points="168.5,-27.14 161.06,-19.59 162.17,-30.13 168.5,-27.14"/>
</g>
<!-- Node7 -->
<g id="node7" class="node">
<title>Node7</title>
<g id="a_node7"><a xlink:title=" ">
<polygon fill="white" stroke="#bfbfbf" points="222.5,-56.5 222.5,-75.5 263.5,-75.5 263.5,-56.5 222.5,-56.5"/>
<text text-anchor="middle" x="243" y="-63.5" font-family="Helvetica,sans-Serif" font-size="10.00">SPI.h</text>
</a>
</g>
</g>
<!-- Node6&#45;&gt;Node7 -->
<g id="edge7" class="edge">
<title>Node6&#45;&gt;Node7</title>
<path fill="none" stroke="midnightblue" d="M214.61,-112.08C219.37,-104.53 226.32,-93.49 232.15,-84.23"/>
<polygon fill="midnightblue" stroke="midnightblue" points="235.12,-86.08 237.49,-75.75 229.2,-82.35 235.12,-86.08"/>
</g>
</g>
</svg>
