<?xml version="1.0" encoding="UTF-8" standalone="no"?>
<!DOCTYPE svg PUBLIC "-//W3C//DTD SVG 1.1//EN"
 "http://www.w3.org/Graphics/SVG/1.1/DTD/svg11.dtd">
<!-- Generated by graphviz version 2.43.0 (0)
 -->
<!-- Title: src/drv8704_bridge.cpp Pages: 1 -->
<svg width="435pt" height="196pt"
 viewBox="0.00 0.00 434.69 196.00" xmlns="http://www.w3.org/2000/svg" xmlns:xlink="http://www.w3.org/1999/xlink">
<g id="graph0" class="graph" transform="scale(1 1) rotate(0) translate(4 192)">
<title>src/drv8704_bridge.cpp</title>
<polygon fill="white" stroke="transparent" points="-4,4 -4,-192 430.69,-192 430.69,4 -4,4"/>
<!-- Node1 -->
<g id="node1" class="node">
<title>Node1</title>
<g id="a_node1"><a xlink:title="Runtime bridge GPIO helpers for the DRV8704 driver.">
<polygon fill="#bfbfbf" stroke="black" points="107,-168.5 107,-187.5 225,-187.5 225,-168.5 107,-168.5"/>
<text text-anchor="middle" x="166" y="-175.5" font-family="Helvetica,sans-Serif" font-size="10.00">src/drv8704_bridge.cpp</text>
</a>
</g>
</g>
<!-- Node2 -->
<g id="node2" class="node">
<title>Node2</title>
<g id="a_node2"><a xlink:href="drv8704_8h.html" target="_top" xlink:title="Public Arduino API for the DRV8704 dual H&#45;bridge gate driver.">
<polygon fill="white" stroke="black" points="199.5,-112.5 199.5,-131.5 258.5,-131.5 258.5,-112.5 199.5,-112.5"/>
<text text-anchor="middle" x="229" y="-119.5" font-family="Helvetica,sans-Serif" font-size="10.00">drv8704.h</text>
</a>
</g>
</g>
<!-- Node1&#45;&gt;Node2 -->
<g id="edge1" class="edge">
<title>Node1&#45;&gt;Node2</title>
<path fill="none" stroke="midnightblue" d="M176.12,-168.32C185.53,-160.26 199.74,-148.08 211.07,-138.37"/>
<polygon fill="midnightblue" stroke="midnightblue" points="213.38,-141 218.69,-131.83 208.82,-135.68 213.38,-141"/>
</g>
<!-- Node9 -->
<g id="node9" class="node">
<title>Node9</title>
<g id="a_node9"><a xlink:href="drv8704__pwm_8h.html" target="_top" xlink:title="Shared abstraction for platform PWM generation backends.">
<polygon fill="white" stroke="black" points="78,-112.5 78,-131.5 164,-131.5 164,-112.5 78,-112.5"/>
<text text-anchor="middle" x="121" y="-119.5" font-family="Helvetica,sans-Serif" font-size="10.00">drv8704_pwm.h</text>
</a>
</g>
</g>
<!-- Node1&#45;&gt;Node9 -->
<g id="edge11" class="edge">
<title>Node1&#45;&gt;Node9</title>
<path fill="none" stroke="midnightblue" d="M158.57,-168.08C152.15,-160.38 142.69,-149.03 134.88,-139.65"/>
<polygon fill="midnightblue" stroke="midnightblue" points="137.38,-137.19 128.29,-131.75 132.01,-141.67 137.38,-137.19"/>
</g>
<!-- Node3 -->
<g id="node3" class="node">
<title>Node3</title>
<g id="a_node3"><a xlink:title=" ">
<polygon fill="white" stroke="#bfbfbf" points="0,-56.5 0,-75.5 58,-75.5 58,-56.5 0,-56.5"/>
<text text-anchor="middle" x="29" y="-63.5" font-family="Helvetica,sans-Serif" font-size="10.00">Arduino.h</text>
</a>
</g>
</g>
<!-- Node2&#45;&gt;Node3 -->
<g id="edge2" class="edge">
<title>Node2&#45;&gt;Node3</title>
<path fill="none" stroke="midnightblue" d="M199.49,-113.03C164.68,-103.63 106.68,-87.97 68.14,-77.57"/>
<polygon fill="midnightblue" stroke="midnightblue" points="68.87,-74.14 58.31,-74.91 67.05,-80.9 68.87,-74.14"/>
</g>
<!-- Node4 -->
<g id="node4" class="node">
<title>Node4</title>
<g id="a_node4"><a xlink:title=" ">
<polygon fill="white" stroke="#bfbfbf" points="384.5,-0.5 384.5,-19.5 425.5,-19.5 425.5,-0.5 384.5,-0.5"/>
<text text-anchor="middle" x="405" y="-7.5" font-family="Helvetica,sans-Serif" font-size="10.00">SPI.h</text>
</a>
</g>
</g>
<!-- Node2&#45;&gt;Node4 -->
<g id="edge3" class="edge">
<title>Node2&#45;&gt;Node4</title>
<path fill="none" stroke="midnightblue" d="M258.6,-118.46C307.33,-113.6 401.06,-101.15 421,-76 431.79,-62.38 424.52,-42.5 416.61,-28.32"/>
<polygon fill="midnightblue" stroke="midnightblue" points="419.45,-26.25 411.24,-19.56 413.48,-29.91 419.45,-26.25"/>
</g>
<!-- Node5 -->
<g id="node5" class="node">
<title>Node5</title>
<g id="a_node5"><a xlink:href="drv8704__defs_8h.html" target="_top" xlink:title="Constants, register addresses, masks, and defaults for the DRV8704 driver.">
<polygon fill="white" stroke="black" points="328.5,-56.5 328.5,-75.5 411.5,-75.5 411.5,-56.5 328.5,-56.5"/>
<text text-anchor="middle" x="370" y="-63.5" font-family="Helvetica,sans-Serif" font-size="10.00">drv8704_defs.h</text>
</a>
</g>
</g>
<!-- Node2&#45;&gt;Node5 -->
<g id="edge4" class="edge">
<title>Node2&#45;&gt;Node5</title>
<path fill="none" stroke="midnightblue" d="M251.34,-112.44C274.75,-103.48 311.74,-89.31 338.19,-79.18"/>
<polygon fill="midnightblue" stroke="midnightblue" points="339.68,-82.36 347.76,-75.52 337.17,-75.82 339.68,-82.36"/>
</g>
<!-- Node7 -->
<g id="node7" class="node">
<title>Node7</title>
<g id="a_node7"><a xlink:href="drv8704__types_8h.html" target="_top" xlink:title="Public enums and data structures for the DRV8704 driver.">
<polygon fill="white" stroke="black" points="76.5,-56.5 76.5,-75.5 165.5,-75.5 165.5,-56.5 76.5,-56.5"/>
<text text-anchor="middle" x="121" y="-63.5" font-family="Helvetica,sans-Serif" font-size="10.00">drv8704_types.h</text>
</a>
</g>
</g>
<!-- Node2&#45;&gt;Node7 -->
<g id="edge7" class="edge">
<title>Node2&#45;&gt;Node7</title>
<path fill="none" stroke="midnightblue" d="M211.65,-112.32C194.33,-103.66 167.48,-90.24 147.5,-80.25"/>
<polygon fill="midnightblue" stroke="midnightblue" points="148.82,-77 138.31,-75.65 145.69,-83.26 148.82,-77"/>
</g>
<!-- Node8 -->
<g id="node8" class="node">
<title>Node8</title>
<g id="a_node8"><a xlink:href="drv8704__regs__typedefs_8h.html" target="_top" xlink:title="Typed register views for the DRV8704 register set.">
<polygon fill="white" stroke="black" points="184,-56.5 184,-75.5 310,-75.5 310,-56.5 184,-56.5"/>
<text text-anchor="middle" x="247" y="-63.5" font-family="Helvetica,sans-Serif" font-size="10.00">drv8704_regs_typedefs.h</text>
</a>
</g>
</g>
<!-- Node2&#45;&gt;Node8 -->
<g id="edge9" class="edge">
<title>Node2&#45;&gt;Node8</title>
<path fill="none" stroke="midnightblue" d="M231.97,-112.08C234.38,-104.85 237.86,-94.41 240.87,-85.4"/>
<polygon fill="midnightblue" stroke="midnightblue" points="244.24,-86.34 244.08,-75.75 237.6,-84.13 244.24,-86.34"/>
</g>
<!-- Node5&#45;&gt;Node4 -->
<g id="edge6" class="edge">
<title>Node5&#45;&gt;Node4</title>
<path fill="none" stroke="midnightblue" d="M375.78,-56.08C380.67,-48.53 387.83,-37.49 393.83,-28.23"/>
<polygon fill="midnightblue" stroke="midnightblue" points="396.83,-30.05 399.33,-19.75 390.95,-26.24 396.83,-30.05"/>
</g>
<!-- Node6 -->
<g id="node6" class="node">
<title>Node6</title>
<g id="a_node6"><a xlink:title=" ">
<polygon fill="white" stroke="#bfbfbf" points="222.5,-0.5 222.5,-19.5 271.5,-19.5 271.5,-0.5 222.5,-0.5"/>
<text text-anchor="middle" x="247" y="-7.5" font-family="Helvetica,sans-Serif" font-size="10.00">stdint.h</text>
</a>
</g>
</g>
<!-- Node5&#45;&gt;Node6 -->
<g id="edge5" class="edge">
<title>Node5&#45;&gt;Node6</title>
<path fill="none" stroke="midnightblue" d="M350.51,-56.44C330.36,-47.6 298.68,-33.69 275.67,-23.59"/>
<polygon fill="midnightblue" stroke="midnightblue" points="276.96,-20.33 266.4,-19.52 274.15,-26.74 276.96,-20.33"/>
</g>
<!-- Node7&#45;&gt;Node6 -->
<g id="edge8" class="edge">
<title>Node7&#45;&gt;Node6</title>
<path fill="none" stroke="midnightblue" d="M140.97,-56.44C161.61,-47.6 194.06,-33.69 217.63,-23.59"/>
<polygon fill="midnightblue" stroke="midnightblue" points="219.32,-26.67 227.13,-19.52 216.56,-20.24 219.32,-26.67"/>
</g>
<!-- Node8&#45;&gt;Node6 -->
<g id="edge10" class="edge">
<title>Node8&#45;&gt;Node6</title>
<path fill="none" stroke="midnightblue" d="M247,-56.08C247,-49.01 247,-38.86 247,-29.99"/>
<polygon fill="midnightblue" stroke="midnightblue" points="250.5,-29.75 247,-19.75 243.5,-29.75 250.5,-29.75"/>
</g>
<!-- Node9&#45;&gt;Node3 -->
<g id="edge12" class="edge">
<title>Node9&#45;&gt;Node3</title>
<path fill="none" stroke="midnightblue" d="M106.22,-112.32C91.73,-103.82 69.43,-90.73 52.51,-80.8"/>
<polygon fill="midnightblue" stroke="midnightblue" points="54.14,-77.7 43.74,-75.65 50.6,-83.74 54.14,-77.7"/>
</g>
<!-- Node9&#45;&gt;Node7 -->
<g id="edge13" class="edge">
<title>Node9&#45;&gt;Node7</title>
<path fill="none" stroke="midnightblue" d="M121,-112.08C121,-105.01 121,-94.86 121,-85.99"/>
<polygon fill="midnightblue" stroke="midnightblue" points="124.5,-85.75 121,-75.75 117.5,-85.75 124.5,-85.75"/>
</g>
</g>
</svg>
