<?xml version="1.0" encoding="UTF-8" standalone="no"?>
<!DOCTYPE svg PUBLIC "-//W3C//DTD SVG 1.1//EN"
 "http://www.w3.org/Graphics/SVG/1.1/DTD/svg11.dtd">
<!-- Generated by graphviz version 2.43.0 (0)
 -->
<!-- Title: src/drv8704_types.h Pages: 1 -->
<svg width="140pt" height="140pt"
 viewBox="0.00 0.00 140.00 140.00" xmlns="http://www.w3.org/2000/svg" xmlns:xlink="http://www.w3.org/1999/xlink">
<g id="graph0" class="graph" transform="scale(1 1) rotate(0) translate(4 136)">
<title>src/drv8704_types.h</title>
<polygon fill="white" stroke="transparent" points="-4,4 -4,-136 136,-136 136,4 -4,4"/>
<!-- Node1 -->
<g id="node1" class="node">
<title>Node1</title>
<g id="a_node1"><a xlink:title="Public enums and data structures for the DRV8704 driver.">
<polygon fill="#bfbfbf" stroke="black" points="3,-112.5 3,-131.5 108,-131.5 108,-112.5 3,-112.5"/>
<text text-anchor="middle" x="55.5" y="-119.5" font-family="Helvetica,sans-Serif" font-size="10.00">src/drv8704_types.h</text>
</a>
</g>
</g>
<!-- Node2 -->
<g id="node2" class="node">
<title>Node2</title>
<g id="a_node2"><a xlink:title=" ">
<polygon fill="white" stroke="#bfbfbf" points="0,-0.5 0,-19.5 49,-19.5 49,-0.5 0,-0.5"/>
<text text-anchor="middle" x="24.5" y="-7.5" font-family="Helvetica,sans-Serif" font-size="10.00">stdint.h</text>
</a>
</g>
</g>
<!-- Node1&#45;&gt;Node2 -->
<g id="edge1" class="edge">
<title>Node1&#45;&gt;Node2</title>
<path fill="none" stroke="midnightblue" d="M52.42,-112.44C49.23,-103.43 44.21,-88.82 40.5,-76 36.05,-60.63 31.76,-42.99 28.75,-29.97"/>
<polygon fill="midnightblue" stroke="midnightblue" points="32.08,-28.86 26.45,-19.89 25.26,-30.42 32.08,-28.86"/>
</g>
<!-- Node3 -->
<g id="node3" class="node">
<title>Node3</title>
<g id="a_node3"><a xlink:href="drv8704__defs_8h.html" target="_top" xlink:title="Constants, register addresses, masks, and defaults for the DRV8704 driver.">
<polygon fill="white" stroke="black" points="49,-56.5 49,-75.5 132,-75.5 132,-56.5 49,-56.5"/>
<text text-anchor="middle" x="90.5" y="-63.5" font-family="Helvetica,sans-Serif" font-size="10.00">drv8704_defs.h</text>
</a>
</g>
</g>
<!-- Node1&#45;&gt;Node3 -->
<g id="edge2" class="edge">
<title>Node1&#45;&gt;Node3</title>
<path fill="none" stroke="midnightblue" d="M61.28,-112.08C66.17,-104.53 73.33,-93.49 79.33,-84.23"/>
<polygon fill="midnightblue" stroke="midnightblue" points="82.33,-86.05 84.83,-75.75 76.45,-82.24 82.33,-86.05"/>
</g>
<!-- Node3&#45;&gt;Node2 -->
<g id="edge3" class="edge">
<title>Node3&#45;&gt;Node2</title>
<path fill="none" stroke="midnightblue" d="M79.9,-56.32C70.04,-48.26 55.15,-36.08 43.28,-26.37"/>
<polygon fill="midnightblue" stroke="midnightblue" points="45.25,-23.46 35.3,-19.83 40.82,-28.88 45.25,-23.46"/>
</g>
<!-- Node4 -->
<g id="node4" class="node">
<title>Node4</title>
<g id="a_node4"><a xlink:title=" ">
<polygon fill="white" stroke="#bfbfbf" points="70,-0.5 70,-19.5 111,-19.5 111,-0.5 70,-0.5"/>
<text text-anchor="middle" x="90.5" y="-7.5" font-family="Helvetica,sans-Serif" font-size="10.00">SPI.h</text>
</a>
</g>
</g>
<!-- Node3&#45;&gt;Node4 -->
<g id="edge4" class="edge">
<title>Node3&#45;&gt;Node4</title>
<path fill="none" stroke="midnightblue" d="M90.5,-56.08C90.5,-49.01 90.5,-38.86 90.5,-29.99"/>
<polygon fill="midnightblue" stroke="midnightblue" points="94,-29.75 90.5,-19.75 87,-29.75 94,-29.75"/>
</g>
</g>
</svg>
