<?xml version="1.0" encoding="UTF-8" standalone="no"?>
<!DOCTYPE svg PUBLIC "-//W3C//DTD SVG 1.1//EN"
 "http://www.w3.org/Graphics/SVG/1.1/DTD/svg11.dtd">
<!-- Generated by graphviz version 2.43.0 (0)
 -->
<!-- Title: src/drv8704_pwm.h Pages: 1 -->
<svg width="772pt" height="84pt"
 viewBox="0.00 0.00 772.00 84.00" xmlns="http://www.w3.org/2000/svg" xmlns:xlink="http://www.w3.org/1999/xlink">
<g id="graph0" class="graph" transform="scale(1 1) rotate(0) translate(4 80)">
<title>src/drv8704_pwm.h</title>
<polygon fill="white" stroke="transparent" points="-4,4 -4,-80 768,-80 768,4 -4,4"/>
<!-- Node1 -->
<g id="node1" class="node">
<title>Node1</title>
<g id="a_node1"><a xlink:title="Shared abstraction for platform PWM generation backends.">
<polygon fill="#bfbfbf" stroke="black" points="322,-56.5 322,-75.5 424,-75.5 424,-56.5 322,-56.5"/>
<text text-anchor="middle" x="373" y="-63.5" font-family="Helvetica,sans-Serif" font-size="10.00">src/drv8704_pwm.h</text>
</a>
</g>
</g>
<!-- Node2 -->
<g id="node2" class="node">
<title>Node2</title>
<g id="a_node2"><a xlink:href="drv8704__bridge_8cpp.html" target="_top" xlink:title="Runtime bridge GPIO helpers for the DRV8704 driver.">
<polygon fill="white" stroke="black" points="0,-0.5 0,-19.5 118,-19.5 118,-0.5 0,-0.5"/>
<text text-anchor="middle" x="59" y="-7.5" font-family="Helvetica,sans-Serif" font-size="10.00">src/drv8704_bridge.cpp</text>
</a>
</g>
</g>
<!-- Node1&#45;&gt;Node2 -->
<g id="edge1" class="edge">
<title>Node1&#45;&gt;Node2</title>
<path fill="none" stroke="midnightblue" d="M313.27,-54.73C253.93,-44.52 164.01,-29.06 108.52,-19.52"/>
<polygon fill="midnightblue" stroke="midnightblue" points="312.8,-58.2 323.25,-56.44 313.98,-51.3 312.8,-58.2"/>
</g>
<!-- Node3 -->
<g id="node3" class="node">
<title>Node3</title>
<g id="a_node3"><a xlink:href="drv8704__pwm__esp32_8cpp.html" target="_top" xlink:title="ESP32 LEDC backend for DRV8704 PWM input generation.">
<polygon fill="white" stroke="black" points="136,-0.5 136,-19.5 280,-19.5 280,-0.5 136,-0.5"/>
<text text-anchor="middle" x="208" y="-7.5" font-family="Helvetica,sans-Serif" font-size="10.00">src/drv8704_pwm_esp32.cpp</text>
</a>
</g>
</g>
<!-- Node1&#45;&gt;Node3 -->
<g id="edge2" class="edge">
<title>Node1&#45;&gt;Node3</title>
<path fill="none" stroke="midnightblue" d="M337.26,-53.3C306.17,-43.13 261.85,-28.62 234.02,-19.52"/>
<polygon fill="midnightblue" stroke="midnightblue" points="336.26,-56.66 346.86,-56.44 338.44,-50.01 336.26,-56.66"/>
</g>
<!-- Node4 -->
<g id="node4" class="node">
<title>Node4</title>
<g id="a_node4"><a xlink:href="drv8704__pwm__general_8cpp.html" target="_top" xlink:title="Generic Arduino analogWrite backend for DRV8704 PWM input generation.">
<polygon fill="white" stroke="black" points="298.5,-0.5 298.5,-19.5 447.5,-19.5 447.5,-0.5 298.5,-0.5"/>
<text text-anchor="middle" x="373" y="-7.5" font-family="Helvetica,sans-Serif" font-size="10.00">src/drv8704_pwm_general.cpp</text>
</a>
</g>
</g>
<!-- Node1&#45;&gt;Node4 -->
<g id="edge3" class="edge">
<title>Node1&#45;&gt;Node4</title>
<path fill="none" stroke="midnightblue" d="M373,-45.8C373,-36.91 373,-26.78 373,-19.75"/>
<polygon fill="midnightblue" stroke="midnightblue" points="369.5,-46.08 373,-56.08 376.5,-46.08 369.5,-46.08"/>
</g>
<!-- Node5 -->
<g id="node5" class="node">
<title>Node5</title>
<g id="a_node5"><a xlink:href="drv8704__pwm__stm_8cpp.html" target="_top" xlink:title="STM hardware&#45;PWM backend for DRV8704 PWM input generation.">
<polygon fill="white" stroke="black" points="466,-0.5 466,-19.5 600,-19.5 600,-0.5 466,-0.5"/>
<text text-anchor="middle" x="533" y="-7.5" font-family="Helvetica,sans-Serif" font-size="10.00">src/drv8704_pwm_stm.cpp</text>
</a>
</g>
</g>
<!-- Node1&#45;&gt;Node5 -->
<g id="edge4" class="edge">
<title>Node1&#45;&gt;Node5</title>
<path fill="none" stroke="midnightblue" d="M408.05,-53.17C438.17,-43 480.9,-28.59 507.77,-19.52"/>
<polygon fill="midnightblue" stroke="midnightblue" points="406.71,-49.93 398.35,-56.44 408.95,-56.56 406.71,-49.93"/>
</g>
<!-- Node6 -->
<g id="node6" class="node">
<title>Node6</title>
<g id="a_node6"><a xlink:href="drv8704__pwm__teensy_8cpp.html" target="_top" xlink:title="Teensy hardware&#45;PWM backend for DRV8704 PWM input generation.">
<polygon fill="white" stroke="black" points="618,-0.5 618,-19.5 764,-19.5 764,-0.5 618,-0.5"/>
<text text-anchor="middle" x="691" y="-7.5" font-family="Helvetica,sans-Serif" font-size="10.00">src/drv8704_pwm_teensy.cpp</text>
</a>
</g>
</g>
<!-- Node1&#45;&gt;Node6 -->
<g id="edge5" class="edge">
<title>Node1&#45;&gt;Node6</title>
<path fill="none" stroke="midnightblue" d="M433.49,-54.73C493.59,-44.52 584.66,-29.06 640.85,-19.52"/>
<polygon fill="midnightblue" stroke="midnightblue" points="432.66,-51.32 423.39,-56.44 433.83,-58.22 432.66,-51.32"/>
</g>
</g>
</svg>
