<?xml version="1.0" encoding="UTF-8" standalone="no"?>
<!DOCTYPE svg PUBLIC "-//W3C//DTD SVG 1.1//EN"
 "http://www.w3.org/Graphics/SVG/1.1/DTD/svg11.dtd">
<!-- Generated by graphviz version 2.43.0 (0)
 -->
<!-- Title: src/drv8704_pwm_general.cpp Pages: 1 -->
<svg width="174pt" height="196pt"
 viewBox="0.00 0.00 173.50 196.00" xmlns="http://www.w3.org/2000/svg" xmlns:xlink="http://www.w3.org/1999/xlink">
<g id="graph0" class="graph" transform="scale(1 1) rotate(0) translate(4 192)">
<title>src/drv8704_pwm_general.cpp</title>
<polygon fill="white" stroke="transparent" points="-4,4 -4,-192 169.5,-192 169.5,4 -4,4"/>
<!-- Node1 -->
<g id="node1" class="node">
<title>Node1</title>
<g id="a_node1"><a xlink:title="Generic Arduino analogWrite backend for DRV8704 PWM input generation.">
<polygon fill="#bfbfbf" stroke="black" points="0.5,-168.5 0.5,-187.5 149.5,-187.5 149.5,-168.5 0.5,-168.5"/>
<text text-anchor="middle" x="75" y="-175.5" font-family="Helvetica,sans-Serif" font-size="10.00">src/drv8704_pwm_general.cpp</text>
</a>
</g>
</g>
<!-- Node2 -->
<g id="node2" class="node">
<title>Node2</title>
<g id="a_node2"><a xlink:href="drv8704__pwm_8h.html" target="_top" xlink:title="Shared abstraction for platform PWM generation backends.">
<polygon fill="white" stroke="black" points="32,-112.5 32,-131.5 118,-131.5 118,-112.5 32,-112.5"/>
<text text-anchor="middle" x="75" y="-119.5" font-family="Helvetica,sans-Serif" font-size="10.00">drv8704_pwm.h</text>
</a>
</g>
</g>
<!-- Node1&#45;&gt;Node2 -->
<g id="edge1" class="edge">
<title>Node1&#45;&gt;Node2</title>
<path fill="none" stroke="midnightblue" d="M75,-168.08C75,-161.01 75,-150.86 75,-141.99"/>
<polygon fill="midnightblue" stroke="midnightblue" points="78.5,-141.75 75,-131.75 71.5,-141.75 78.5,-141.75"/>
</g>
<!-- Node3 -->
<g id="node3" class="node">
<title>Node3</title>
<g id="a_node3"><a xlink:title=" ">
<polygon fill="white" stroke="#bfbfbf" points="0,-56.5 0,-75.5 58,-75.5 58,-56.5 0,-56.5"/>
<text text-anchor="middle" x="29" y="-63.5" font-family="Helvetica,sans-Serif" font-size="10.00">Arduino.h</text>
</a>
</g>
</g>
<!-- Node2&#45;&gt;Node3 -->
<g id="edge2" class="edge">
<title>Node2&#45;&gt;Node3</title>
<path fill="none" stroke="midnightblue" d="M67.4,-112.08C60.77,-104.3 50.98,-92.8 42.94,-83.37"/>
<polygon fill="midnightblue" stroke="midnightblue" points="45.6,-81.09 36.45,-75.75 40.27,-85.63 45.6,-81.09"/>
</g>
<!-- Node4 -->
<g id="node4" class="node">
<title>Node4</title>
<g id="a_node4"><a xlink:href="drv8704__types_8h.html" target="_top" xlink:title="Public enums and data structures for the DRV8704 driver.">
<polygon fill="white" stroke="black" points="76.5,-56.5 76.5,-75.5 165.5,-75.5 165.5,-56.5 76.5,-56.5"/>
<text text-anchor="middle" x="121" y="-63.5" font-family="Helvetica,sans-Serif" font-size="10.00">drv8704_types.h</text>
</a>
</g>
</g>
<!-- Node2&#45;&gt;Node4 -->
<g id="edge3" class="edge">
<title>Node2&#45;&gt;Node4</title>
<path fill="none" stroke="midnightblue" d="M82.6,-112.08C89.23,-104.3 99.02,-92.8 107.06,-83.37"/>
<polygon fill="midnightblue" stroke="midnightblue" points="109.73,-85.63 113.55,-75.75 104.4,-81.09 109.73,-85.63"/>
</g>
<!-- Node5 -->
<g id="node5" class="node">
<title>Node5</title>
<g id="a_node5"><a xlink:title=" ">
<polygon fill="white" stroke="#bfbfbf" points="96.5,-0.5 96.5,-19.5 145.5,-19.5 145.5,-0.5 96.5,-0.5"/>
<text text-anchor="middle" x="121" y="-7.5" font-family="Helvetica,sans-Serif" font-size="10.00">stdint.h</text>
</a>
</g>
</g>
<!-- Node4&#45;&gt;Node5 -->
<g id="edge4" class="edge">
<title>Node4&#45;&gt;Node5</title>
<path fill="none" stroke="midnightblue" d="M121,-56.08C121,-49.01 121,-38.86 121,-29.99"/>
<polygon fill="midnightblue" stroke="midnightblue" points="124.5,-29.75 121,-19.75 117.5,-29.75 124.5,-29.75"/>
</g>
</g>
</svg>
